<?xml version="1.0" encoding="utf-8"?>
<!-- Generator: Adobe Illustrator 16.0.0, SVG Export Plug-In . SVG Version: 6.00 Build 0)  -->
<!DOCTYPE svg PUBLIC "-//W3C//DTD SVG 1.1//EN" "http://www.w3.org/Graphics/SVG/1.1/DTD/svg11.dtd">
<svg version="1.1" xmlns="http://www.w3.org/2000/svg" xmlns:xlink="http://www.w3.org/1999/xlink" x="0px" y="0px" width="326px"
	 height="84px" viewBox="0 0 326 84" enable-background="new 0 0 326 84" xml:space="preserve">
<g id="Capa_2">
	<rect fill="#FFFFFF" width="61" height="84"/>
</g>
<g id="Capa_1">
	<polygon fill="#005386" points="326,84 165.004,84 160.996,84 1.21,84 16.891,42.021 0,0 160.996,0 165.004,0 326,0 	"/>
	<g>
		<path fill="#FFFFFF" d="M107.887,71.694V15.308h8.848V39.49H126.8V15.308h8.847v56.386H126.8V47.551h-10.066v24.143H107.887z"/>
		<path fill="#FFFFFF" d="M143.52,58.168V28.834c0-4.508,1.155-7.995,3.465-10.459c2.31-2.464,5.637-3.696,9.983-3.696
			c4.346,0,7.673,1.232,9.983,3.696c2.31,2.464,3.465,5.951,3.465,10.459v29.333c0,4.509-1.155,7.996-3.465,10.459
			c-2.31,2.464-5.638,3.696-9.983,3.696c-4.346,0-7.673-1.231-9.983-3.696C144.674,66.164,143.52,62.677,143.52,58.168z
			 M152.367,58.685c0.026,3.692,1.566,5.552,4.621,5.578c3.08,0,4.606-1.859,4.581-5.578V28.278c0-3.692-1.533-5.539-4.601-5.539
			c-3.067,0-4.601,1.846-4.601,5.539V58.685z"/>
		<path fill="#FFFFFF" d="M178.169,71.694V15.308h8.848v48.325h14.588v8.061H178.169z"/>
		<path fill="#FFFFFF" d="M205.151,71.694l8.973-56.386h13.668l8.973,56.386h-8.847l-1.529-10.145H215.52l-1.521,10.145H205.151z
			 M216.682,53.803h8.539l-4.282-28.384L216.682,53.803z"/>
	</g>
</g>
</svg>
