<?xml version="1.0" encoding="utf-8"?>
<!-- Generator: Adobe Illustrator 16.0.0, SVG Export Plug-In . SVG Version: 6.00 Build 0)  -->
<!DOCTYPE svg PUBLIC "-//W3C//DTD SVG 1.1//EN" "http://www.w3.org/Graphics/SVG/1.1/DTD/svg11.dtd">
<svg version="1.1" id="Capa_1" xmlns="http://www.w3.org/2000/svg" xmlns:xlink="http://www.w3.org/1999/xlink" x="0px" y="0px"
	 width="209px" height="45.109px" viewBox="0 0.441 209 45.109" enable-background="new 0 0.441 209 45.109" xml:space="preserve">
<g id="Capa_1_1_" display="none">
	<rect y="-0.25" display="inline" fill="#0000FF" width="209" height="46"/>
</g>
<g id="base_bca" display="none">
	<polygon display="inline" fill="#FFFFFF" points="183.59,22.995 196.507,0.441 14.643,0.441 2,22.995 14.643,45.55 196.507,45.55 	
		"/>
</g>
<g id="base_roja" display="none">
	<polygon display="inline" fill="#E52F2B" points="183.59,22.995 196.507,0.441 14.643,0.441 2,22.995 14.643,45.55 196.507,45.55 	
		"/>
</g>
<g id="base_verde">
	<polygon fill="#009541" points="183.59,22.995 196.507,0.441 14.643,0.441 2,22.995 14.643,45.55 196.507,45.55 	"/>
</g>
<g id="tottus" display="none">
	<polygon display="inline" fill="#82BC00" points="71.545,13.288 54.26,13.288 54.26,18.437 59.694,18.437 59.694,34.15 
		66.117,34.15 66.117,18.437 71.545,18.437 	"/>
	<polygon display="inline" fill="#82BC00" points="93.266,18.437 98.698,18.437 98.698,34.15 105.119,34.15 105.117,18.437 
		110.555,18.437 110.555,13.288 93.266,13.288 	"/>
	<polygon display="inline" fill="#82BC00" points="112.109,18.437 117.547,18.437 117.547,34.15 123.971,34.15 123.971,18.437 
		129.4,18.437 129.4,13.288 112.109,13.288 	"/>
	<path display="inline" fill="#82BC00" d="M144.38,26.025c0,1.158-0.315,2.058-0.95,2.688c-0.623,0.63-1.486,0.938-2.595,0.938
		c-1.117,0-1.993-0.315-2.625-0.951c-0.625-0.641-0.933-1.539-0.933-2.674V13.288h-6.412v12.437c0,1.026,0.199,2.203,0.601,3.533
		c0.244,0.826,0.694,1.623,1.354,2.405c0.677,0.776,1.41,1.377,2.218,1.808c0.802,0.415,1.802,0.693,2.985,0.836
		c1.203,0.144,2.312,0.213,3.318,0.213c1.751,0,3.249-0.229,4.496-0.695c0.902-0.329,1.754-0.908,2.568-1.723
		c0.82-0.822,1.42-1.787,1.796-2.873c0.39-1.103,0.587-2.27,0.58-3.504V13.288h-6.403L144.38,26.025L144.38,26.025z"/>
	<path display="inline" fill="#82BC00" d="M170.335,24.273c-0.548-0.92-1.435-1.69-2.647-2.309
		c-1.211-0.624-3.221-1.241-6.029-1.851c-1.137-0.237-1.848-0.487-2.15-0.768c-0.316-0.266-0.469-0.563-0.469-0.899
		c0-0.454,0.186-0.836,0.562-1.149c0.385-0.322,0.944-0.486,1.688-0.486c0.905,0,1.61,0.215,2.123,0.64
		c0.519,0.43,0.862,1.111,1.022,2.051l6.057-0.353c-0.268-2.167-1.1-3.74-2.494-4.73c-1.395-0.992-3.417-1.493-6.072-1.493
		c-2.162,0.003-3.869,0.28-5.117,0.828c-1.234,0.543-2.166,1.291-2.793,2.25c-0.609,0.945-0.918,1.956-0.918,3.034
		c0,1.63,0.601,2.968,1.812,4.025c1.199,1.055,3.207,1.896,6.025,2.536c1.719,0.377,2.815,0.781,3.289,1.209
		c0.469,0.422,0.709,0.906,0.709,1.45c0,0.567-0.254,1.074-0.752,1.507c-0.494,0.422-1.197,0.642-2.113,0.642
		c-1.229,0-2.172-0.423-2.836-1.267c-0.406-0.52-0.674-1.281-0.808-2.279l-6.11,0.386c0.18,2.108,0.951,3.847,2.312,5.21
		c1.363,1.366,3.809,2.048,7.342,2.047c2.014,0,3.682-0.286,5.008-0.867c1.32-0.589,2.352-1.445,3.086-2.572
		c0.742-1.131,1.111-2.365,1.111-3.7C171.174,26.225,170.895,25.193,170.335,24.273"/>
	<path display="inline" fill="#82BC00" d="M82.378,12.987c-6.033,0-10.927,4.912-10.927,10.968c0,6.055,4.894,10.968,10.927,10.968
		c6.031,0,10.924-4.913,10.924-10.968C93.302,17.898,88.41,12.987,82.378,12.987 M82.378,29.438c-3.018,0-5.461-2.453-5.461-5.482
		c0-3.028,2.444-5.486,5.461-5.486c3.013,0,5.461,2.458,5.461,5.486C87.839,26.982,85.391,29.438,82.378,29.438"/>
	<path display="inline" fill="#82BC00" d="M31.737,13.765c0-1.966,1.592-3.554,3.554-3.554c1.96,0,3.55,1.588,3.55,3.554
		c0,1.958-1.59,3.549-3.55,3.547C33.329,17.312,31.737,15.723,31.737,13.765"/>
	<path display="inline" fill="#E2E040" d="M23.923,14.788c0-1.743,1.411-3.154,3.153-3.154c1.747,0,3.161,1.411,3.161,3.154
		c0,1.742-1.415,3.155-3.161,3.155C25.334,17.943,23.923,16.53,23.923,14.788"/>
	<path display="inline" fill="#E2E040" d="M40.338,14.788c0-1.743,1.415-3.158,3.156-3.158c1.745,0,3.16,1.415,3.16,3.158
		c0,1.742-1.415,3.155-3.16,3.158C41.753,17.946,40.338,16.53,40.338,14.788"/>
	<path display="inline" fill="#E2E040" d="M40.338,31.203c0-1.743,1.415-3.154,3.156-3.154c1.749,0,3.16,1.411,3.16,3.154
		c0,1.74-1.411,3.156-3.16,3.156C41.753,34.359,40.338,32.943,40.338,31.203"/>
	<path display="inline" fill="#E2E040" d="M23.923,31.203c0-1.743,1.411-3.154,3.154-3.154c1.746,0,3.158,1.411,3.158,3.154
		c0,1.74-1.412,3.156-3.158,3.156C25.334,34.359,23.923,32.943,23.923,31.203"/>
	<path display="inline" fill="#4A7628" d="M31.345,22.995c0-2.181,1.767-3.947,3.946-3.947c2.178,0,3.943,1.767,3.943,3.947
		c0,2.178-1.765,3.944-3.943,3.944C33.111,26.939,31.345,25.173,31.345,22.995"/>
	<path display="inline" fill="#82BC00" d="M31.737,32.229c0-1.959,1.591-3.554,3.554-3.554c1.96,0,3.55,1.595,3.55,3.554
		c0,1.963-1.59,3.553-3.55,3.553C33.328,35.779,31.737,34.189,31.737,32.229"/>
	<path display="inline" fill="#82BC00" d="M40.97,22.995c0-1.962,1.591-3.554,3.554-3.554c1.959,0,3.551,1.59,3.551,3.554
		c0,1.962-1.592,3.551-3.551,3.551C42.562,26.546,40.97,24.957,40.97,22.995"/>
	<path display="inline" fill="#82BC00" d="M22.504,22.995c0-1.962,1.589-3.554,3.552-3.554c1.961,0,3.553,1.592,3.553,3.554
		s-1.592,3.551-3.553,3.551C24.093,26.546,22.504,24.957,22.504,22.995"/>
</g>
<g id="walmart" display="none">
	<g display="inline">
		<path fill="#FFB819" d="M153.553,18.102c0.826,0,1.508-0.43,1.6-0.986l0.818-9.243c0-0.914-1.07-1.664-2.416-1.664
			c-1.344,0-2.412,0.75-2.412,1.664l0.816,9.243c0.09,0.556,0.771,0.986,1.596,0.986H153.553z"/>
		<path fill="#FFB819" d="M148.557,20.989c0.414-0.717,0.383-1.522-0.055-1.879l-7.596-5.327c-0.789-0.457-1.975,0.092-2.646,1.258
			c-0.676,1.163-0.555,2.464,0.234,2.921l8.41,3.917c0.525,0.195,1.242-0.179,1.656-0.896L148.557,20.989z"/>
		<path fill="#FFB819" d="M158.551,20.983c0.414,0.717,1.127,1.091,1.654,0.896l8.412-3.917c0.791-0.456,0.906-1.757,0.236-2.92
			c-0.677-1.166-1.861-1.715-2.65-1.258l-7.596,5.327c-0.437,0.357-0.467,1.163-0.053,1.879L158.551,20.983z"/>
		<path fill="#FFB819" d="M153.553,29.646c0.826,0,1.508,0.426,1.6,0.983l0.818,9.24c0,0.914-1.07,1.664-2.416,1.664
			c-1.344,0-2.412-0.75-2.412-1.664l0.816-9.24c0.09-0.56,0.771-0.983,1.596-0.983H153.553z"/>
		<path fill="#FFB819" d="M158.551,26.76c0.414-0.719,1.127-1.09,1.654-0.891l8.412,3.91c0.791,0.459,0.906,1.762,0.236,2.926
			c-0.677,1.162-1.861,1.713-2.65,1.258l-7.596-5.324c-0.437-0.361-0.467-1.166-0.053-1.881L158.551,26.76z"/>
		<path fill="#FFB819" d="M148.557,26.758c0.414,0.717,0.383,1.521-0.055,1.881l-7.596,5.324c-0.789,0.455-1.975-0.098-2.646-1.258
			c-0.676-1.164-0.555-2.467,0.234-2.926l8.41-3.91c0.525-0.199,1.242,0.172,1.656,0.891L148.557,26.758z"/>
		<path fill="#0071CE" d="M105.635,28.621c0,0.283-0.025,0.578-0.104,0.834c-0.322,1.066-1.428,1.969-2.809,1.969
			c-1.152,0-2.068-0.654-2.068-2.037c0-2.115,2.329-2.701,4.98-2.686L105.635,28.621L105.635,28.621z M109.793,24.936
			c0-3.491-1.49-6.56-6.527-6.56c-2.587,0-4.64,0.727-5.76,1.374l0.82,2.805c1.024-0.646,2.655-1.18,4.2-1.18
			c2.557-0.007,2.975,1.445,2.975,2.376v0.222c-5.571-0.009-9.092,1.92-9.092,5.85c0,2.4,1.793,4.648,4.91,4.648
			c1.917,0,3.522-0.765,4.481-1.99h0.095c0,0,0.637,2.662,4.145,1.645c-0.184-1.109-0.244-2.289-0.244-3.713v-5.477H109.793z"/>
		<path fill="#0071CE" d="M23.004,13.623c0,0,3.64,14.915,4.221,17.336c0.678,2.826,1.899,3.865,5.422,3.164l2.273-9.248
			c0.576-2.296,0.962-3.935,1.333-6.271h0.065c0.261,2.361,0.632,3.982,1.106,6.28c0,0,0.925,4.198,1.398,6.401
			c0.475,2.205,1.796,3.594,5.247,2.838l5.416-20.5h-4.372l-1.849,8.863c-0.498,2.581-0.948,4.594-1.296,6.956h-0.062
			c-0.316-2.338-0.718-4.272-1.224-6.785l-1.925-9.033H34.2l-2.059,8.805c-0.584,2.675-1.129,4.835-1.477,7.116h-0.063
			c-0.355-2.146-0.829-4.86-1.341-7.452c0,0-1.224-6.298-1.653-8.469H23.004L23.004,13.623z"/>
		<path fill="#0071CE" d="M57.751,28.621c0,0.283-0.025,0.578-0.104,0.834c-0.321,1.066-1.427,1.969-2.808,1.969
			c-1.153,0-2.069-0.654-2.069-2.037c0-2.115,2.329-2.701,4.981-2.686V28.621z M61.91,24.936c0-3.491-1.491-6.56-6.528-6.56
			c-2.586,0-4.64,0.727-5.759,1.374l0.818,2.805c1.024-0.646,2.656-1.18,4.201-1.18c2.556-0.007,2.975,1.445,2.975,2.376v0.222
			c-5.573-0.009-9.092,1.92-9.092,5.85c0,2.4,1.792,4.648,4.908,4.648c1.917,0,3.521-0.765,4.482-1.99h0.094
			c0,0,0.638,2.662,4.145,1.645c-0.186-1.109-0.244-2.289-0.244-3.713V24.936z"/>
		<polygon fill="#0071CE" points="68.849,29.77 68.849,13.623 64.687,13.623 64.687,34.123 68.849,34.123 		"/>
		<path fill="#0071CE" d="M123.316,13.623v15.124c0,2.084,0.393,3.547,1.231,4.438c0.731,0.78,1.941,1.285,3.39,1.285
			c1.229,0,2.44-0.232,3.012-0.445l-0.053-3.252c-0.426,0.104-0.914,0.188-1.582,0.188c-1.418,0-1.894-0.908-1.894-2.781v-5.785
			h3.625V18.47h-3.625v-4.848L123.316,13.623L123.316,13.623z"/>
		<path fill="#0071CE" d="M112.57,18.722v15.401h4.293v-7.887c0-0.424,0.027-0.797,0.094-1.135c0.318-1.654,1.582-2.708,3.395-2.708
			c0.498,0,0.855,0.053,1.24,0.109V18.47c-0.322-0.065-0.545-0.095-0.945-0.095c-1.604,0-3.428,1.034-4.192,3.252h-0.115v-2.906
			L112.57,18.722L112.57,18.722z"/>
		<path fill="#0071CE" d="M71.765,18.722v15.401h4.185v-9.032c0-0.423,0.049-0.87,0.197-1.26c0.347-0.91,1.193-1.974,2.542-1.974
			c1.689,0,2.479,1.428,2.479,3.489v8.776h4.181V24.98c0-0.404,0.055-0.891,0.173-1.248c0.345-1.034,1.257-1.876,2.512-1.876
			c1.711,0,2.535,1.403,2.535,3.826v8.439h4.183v-9.07c0-4.784-2.43-6.677-5.171-6.677c-1.214,0-2.173,0.304-3.039,0.835
			c-0.728,0.447-1.382,1.083-1.952,1.918h-0.061c-0.662-1.66-2.218-2.754-4.244-2.754c-2.605,0-3.776,1.319-4.486,2.439h-0.061
			v-2.093h-3.973V18.722z"/>
		<path fill="#FFB819" d="M170.285,33.873h0.078c0.092,0,0.166-0.031,0.166-0.105c0-0.065-0.049-0.108-0.154-0.108
			c-0.043,0-0.072,0.004-0.09,0.008V33.873z M170.279,34.273h-0.164v-0.711c0.064-0.015,0.156-0.027,0.273-0.027
			c0.137,0,0.196,0.023,0.25,0.057c0.038,0.031,0.067,0.088,0.067,0.154c0,0.082-0.062,0.145-0.146,0.17v0.008
			c0.067,0.021,0.106,0.078,0.129,0.176c0.022,0.107,0.035,0.152,0.055,0.174h-0.182c-0.021-0.026-0.033-0.086-0.056-0.17
			c-0.014-0.08-0.057-0.112-0.147-0.112h-0.08V34.273L170.279,34.273z M170.389,33.33c-0.313,0-0.551,0.258-0.551,0.572
			c0,0.318,0.236,0.572,0.561,0.572c0.314,0.004,0.545-0.254,0.545-0.572c0-0.314-0.229-0.572-0.549-0.572H170.389z M170.398,33.186
			c0.41,0,0.729,0.32,0.729,0.717c0,0.406-0.318,0.722-0.732,0.722c-0.41,0-0.737-0.313-0.737-0.722
			c0-0.396,0.327-0.717,0.737-0.717H170.398z"/>
	</g>
</g>
<g id="sta_isabel" display="none">
	<g display="inline">
		<path fill="#FFFFFF" d="M66.712,32.177c0.372-0.375,0.812-0.676,1.295-0.868c0.485-0.181,0.951-0.265,1.439-0.265
			c0.502,0,0.99,0.084,1.473,0.265c0.488,0.192,0.918,0.493,1.294,0.868l0.544,0.54l-1.088,1.074l-0.552-0.514
			c-0.21-0.244-0.495-0.422-0.763-0.543c-0.302-0.084-0.599-0.146-0.908-0.146c-0.272,0-0.575,0.062-0.866,0.146
			c-0.3,0.121-0.556,0.299-0.769,0.543c-0.232,0.197-0.411,0.449-0.535,0.744c-0.117,0.305-0.174,0.598-0.174,0.875
			c0,0.312,0.058,0.606,0.174,0.902c0.124,0.271,0.302,0.555,0.535,0.766c0.452,0.479,1.006,0.692,1.634,0.692
			c0.318,0,0.624-0.04,0.917-0.157c0.294-0.119,0.544-0.302,0.754-0.535l0.552-0.517l1.088,1.068l-0.544,0.544
			c-0.375,0.379-0.806,0.674-1.294,0.861c-0.483,0.192-0.97,0.269-1.473,0.269c-0.488,0-0.954-0.075-1.439-0.269
			c-0.482-0.188-0.923-0.482-1.295-0.861c-0.373-0.374-0.671-0.796-0.855-1.287c-0.183-0.453-0.262-0.939-0.262-1.473
			c0-0.488,0.079-0.957,0.262-1.442C66.041,32.979,66.34,32.545,66.712,32.177"/>
		<path fill="#FFFFFF" d="M75.573,33.286c-0.455,0.473-0.693,0.996-0.693,1.661c0,0.361,0.1,0.693,0.25,0.998
			c0.127-0.122,0.354-0.323,0.623-0.618c0.287-0.267,0.599-0.57,0.907-0.88c0.314-0.312,0.621-0.618,0.922-0.922
			c0.299-0.297,0.509-0.51,0.683-0.678c-0.436-0.197-0.913-0.304-1.401-0.228C76.375,32.709,75.942,32.913,75.573,33.286
			 M79.441,36.07l1.074,1.095l-0.521,0.519c-0.372,0.363-0.797,0.666-1.274,0.856c-0.46,0.192-0.955,0.297-1.483,0.297
			c-0.507,0-1.006-0.104-1.483-0.297c-0.46-0.19-0.886-0.493-1.257-0.856c-0.373-0.373-0.669-0.811-0.85-1.27
			c-0.192-0.484-0.267-0.977-0.267-1.467c0-0.496,0.075-0.977,0.267-1.469c0.181-0.453,0.477-0.875,0.85-1.262
			c0.377-0.377,0.805-0.665,1.291-0.859c0.46-0.186,0.948-0.289,1.45-0.289c0.494,0,0.977,0.104,1.47,0.289
			c0.481,0.194,0.91,0.482,1.287,0.859l0.521,0.518l-4.292,4.32c0.438,0.231,0.89,0.295,1.387,0.227
			c0.482-0.1,0.92-0.301,1.287-0.676L79.441,36.07z"/>
		<path fill="#FFFFFF" d="M81.356,33.409c0.191-0.447,0.482-0.869,0.812-1.232c0.362-0.327,0.784-0.62,1.239-0.817
			c0.478-0.194,0.984-0.301,1.519-0.301c0.527,0,1.05,0.105,1.502,0.301c0.483,0.197,0.875,0.49,1.236,0.817
			c0.363,0.363,0.628,0.785,0.852,1.232c0.191,0.478,0.303,0.978,0.303,1.526v3.894h-1.536v-3.894c0-0.343-0.07-0.652-0.186-0.914
			c-0.116-0.295-0.294-0.547-0.5-0.744c-0.22-0.231-0.476-0.37-0.775-0.493c-0.269-0.125-0.576-0.183-0.896-0.183
			c-0.339,0-0.65,0.058-0.912,0.183c-0.295,0.123-0.543,0.262-0.745,0.493c-0.228,0.197-0.372,0.449-0.496,0.744
			c-0.122,0.262-0.179,0.571-0.179,0.914v3.894h-1.548v-3.894C81.048,34.387,81.131,33.887,81.356,33.409"/>
		<path fill="#FFFFFF" d="M90.457,32.177c0.405-0.375,0.805-0.676,1.293-0.868c0.484-0.181,0.979-0.265,1.467-0.265
			c0.496,0,0.986,0.084,1.472,0.265c0.456,0.192,0.89,0.493,1.268,0.868l0.547,0.54l-1.068,1.074l-0.555-0.514
			c-0.236-0.244-0.49-0.422-0.786-0.543c-0.272-0.084-0.57-0.146-0.879-0.146c-0.3,0-0.599,0.062-0.866,0.146
			c-0.3,0.121-0.556,0.299-0.794,0.543c-0.234,0.197-0.417,0.449-0.507,0.744c-0.116,0.305-0.177,0.598-0.177,0.875
			c0,0.312,0.061,0.606,0.177,0.902c0.09,0.271,0.272,0.555,0.507,0.766c0.45,0.479,1,0.692,1.66,0.692
			c0.314,0,0.612-0.04,0.89-0.157c0.301-0.119,0.547-0.302,0.775-0.535l0.555-0.517l1.068,1.068l-0.547,0.544
			c-0.378,0.379-0.812,0.674-1.268,0.861c-0.486,0.192-0.977,0.269-1.472,0.269c-0.488,0-0.982-0.075-1.467-0.269
			c-0.488-0.188-0.888-0.482-1.293-0.861c-0.373-0.374-0.636-0.796-0.83-1.287c-0.18-0.453-0.287-0.939-0.287-1.473
			c0-0.488,0.107-0.957,0.287-1.442C89.821,32.979,90.084,32.545,90.457,32.177"/>
		<path fill="#FFFFFF" d="M98.642,34.947c0,0.32,0.039,0.623,0.161,0.914c0.122,0.275,0.296,0.522,0.523,0.756
			c0.198,0.195,0.447,0.372,0.744,0.498c0.274,0.121,0.579,0.184,0.925,0.184c0.313,0,0.623-0.062,0.89-0.184
			c0.297-0.126,0.547-0.303,0.782-0.498c0.197-0.232,0.37-0.479,0.494-0.756c0.122-0.291,0.183-0.594,0.183-0.914
			c0-0.319-0.061-0.618-0.183-0.918c-0.124-0.269-0.297-0.512-0.494-0.733c-0.234-0.209-0.485-0.388-0.782-0.503
			c-0.267-0.124-0.577-0.189-0.89-0.189c-0.347,0-0.651,0.065-0.925,0.189c-0.297,0.115-0.546,0.294-0.744,0.503
			c-0.227,0.222-0.402,0.466-0.523,0.733C98.681,34.329,98.642,34.628,98.642,34.947 M97.109,34.947
			c0-0.547,0.089-1.053,0.306-1.526c0.194-0.453,0.483-0.876,0.816-1.208c0.361-0.354,0.783-0.646,1.241-0.846
			c0.481-0.194,0.982-0.301,1.523-0.301c0.518,0,1.046,0.105,1.498,0.301c0.477,0.199,0.874,0.49,1.236,0.846
			c0.367,0.332,0.625,0.755,0.849,1.208c0.192,0.474,0.309,0.979,0.309,1.526c0,0.535-0.116,1.037-0.309,1.496
			c-0.223,0.482-0.482,0.902-0.849,1.238c-0.363,0.361-0.759,0.652-1.236,0.855c-0.452,0.188-0.98,0.299-1.498,0.299
			c-0.541,0-1.042-0.111-1.523-0.299c-0.458-0.203-0.88-0.494-1.241-0.855c-0.333-0.336-0.622-0.756-0.816-1.238
			C97.198,35.984,97.109,35.482,97.109,34.947"/>
		<path fill="#FFFFFF" d="M112.378,31.044v1.544h-4.688c-0.207,0-0.394,0.071-0.557,0.208c-0.14,0.166-0.209,0.349-0.209,0.56
			c0,0.228,0.069,0.418,0.209,0.549c0.163,0.172,0.35,0.248,0.557,0.248h3.133c0.308,0,0.617,0.053,0.879,0.181
			c0.296,0.119,0.551,0.296,0.75,0.494c0.222,0.194,0.373,0.44,0.502,0.737c0.115,0.291,0.176,0.574,0.176,0.914
			c0,0.314-0.061,0.627-0.176,0.891c-0.129,0.283-0.28,0.543-0.502,0.745c-0.199,0.222-0.454,0.372-0.75,0.5
			c-0.262,0.118-0.571,0.178-0.879,0.178h-4.684v-1.533h4.684c0.207,0,0.39-0.082,0.558-0.215c0.136-0.161,0.205-0.353,0.205-0.563
			c0-0.23-0.069-0.408-0.205-0.559c-0.168-0.167-0.351-0.229-0.558-0.229h-3.133c-0.317,0-0.629-0.06-0.92-0.188
			c-0.265-0.118-0.509-0.301-0.709-0.497c-0.225-0.226-0.375-0.479-0.494-0.747c-0.123-0.286-0.188-0.591-0.188-0.905
			c0-0.326,0.065-0.625,0.188-0.926c0.119-0.261,0.271-0.502,0.494-0.709c0.2-0.221,0.444-0.371,0.709-0.494
			c0.291-0.123,0.603-0.182,0.92-0.182L112.378,31.044L112.378,31.044z"/>
		<path fill="#FFFFFF" d="M121.4,31.044v3.854c0,0.539-0.11,1.045-0.307,1.526c-0.193,0.456-0.488,0.88-0.822,1.235
			c-0.362,0.363-0.781,0.633-1.234,0.824c-0.482,0.222-0.98,0.306-1.531,0.306c-0.513,0-1.041-0.084-1.488-0.306
			c-0.488-0.191-0.901-0.461-1.24-0.824c-0.359-0.355-0.62-0.779-0.842-1.235c-0.191-0.481-0.304-0.987-0.304-1.526v-3.854h1.536
			v3.854c0,0.347,0.061,0.648,0.182,0.922c0.127,0.297,0.297,0.55,0.504,0.744c0.226,0.229,0.477,0.408,0.736,0.523
			c0.299,0.129,0.602,0.169,0.916,0.169c0.317,0,0.629-0.04,0.924-0.169c0.299-0.115,0.543-0.296,0.746-0.523
			c0.227-0.194,0.379-0.447,0.499-0.744c0.117-0.272,0.183-0.575,0.183-0.922v-3.854H121.4z"/>
		<path fill="#FFFFFF" d="M125.771,37.258c0.315,0,0.619-0.04,0.89-0.169c0.293-0.114,0.545-0.296,0.743-0.522
			c0.229-0.195,0.404-0.448,0.496-0.742c0.123-0.275,0.183-0.578,0.183-0.926v-2.311h-2.312c-0.342,0-0.65,0.062-0.924,0.18
			c-0.297,0.127-0.545,0.275-0.75,0.5c-0.221,0.203-0.396,0.453-0.522,0.74c-0.095,0.271-0.151,0.574-0.151,0.891
			c0,0.348,0.059,0.649,0.151,0.926c0.126,0.294,0.303,0.547,0.522,0.742c0.205,0.228,0.453,0.408,0.75,0.522
			C125.12,37.218,125.43,37.258,125.771,37.258 M129.625,27.918v6.979c0,0.541-0.083,1.047-0.303,1.528
			c-0.198,0.456-0.461,0.88-0.821,1.235c-0.362,0.363-0.753,0.633-1.239,0.824c-0.48,0.222-0.978,0.306-1.49,0.306
			c-0.545,0-1.039-0.084-1.517-0.306c-0.464-0.191-0.885-0.461-1.245-0.824c-0.367-0.355-0.634-0.779-0.822-1.235
			c-0.227-0.481-0.312-0.987-0.312-1.528c0-0.514,0.086-1.049,0.312-1.496c0.188-0.471,0.455-0.873,0.822-1.232
			c0.36-0.361,0.781-0.623,1.245-0.82c0.478-0.216,0.972-0.304,1.517-0.304h2.312v-3.126H129.625z"/>
		<path fill="#FFFFFF" d="M43.136,8.663c-0.318,1.094-0.661,2.152-1.034,3.197c-0.394-0.131-0.841-0.33-1.396-0.469
			c-1.201-0.327-3.54-0.429-4.557,0.15c-0.531,0.321-0.858,1.185-0.379,1.8c0.435,0.542,1.236,0.786,1.87,1.057
			c2.044,0.784,4.118,1.721,4.118,4.559c0,3.741-3.038,5.273-6.565,5.525c-2.296,0.179-4.366-0.2-6.25-0.812
			c0.271-1.056,0.644-2.206,0.99-3.263c1.169,0.616,3.101,1.001,4.93,0.851c1.172-0.1,2.437-0.605,2.432-1.819
			c-0.01-1.152-1.282-1.583-2.147-1.924c-1.925-0.771-3.89-1.487-4.088-3.935c-0.03-0.187-0.009-0.372,0-0.562
			c0.241-3.262,2.546-4.728,5.856-5.044c0.477-0.072,1.01,0,1.521,0C40.257,7.975,41.938,8.047,43.136,8.663"/>
		<path fill="#FFFFFF" d="M79.071,8.517h0.024c-0.205,1.29-0.501,2.485-0.778,3.704c0.875,0.075,1.926-0.018,2.822,0.04
			c-0.141,1.006-0.335,1.945-0.482,2.913c-0.958,0.054-2.003,0.009-3.001,0.041c-0.307,1.202-0.578,2.632-0.858,3.94
			c-0.095,0.443-0.223,0.921-0.218,1.381c0.003,0.723,0.432,1.214,1.076,1.3c0.618,0.061,1.048-0.187,1.579-0.329
			c-0.098,0.952-0.289,1.859-0.433,2.769c-1.109,0.183-2.301,0.34-3.32,0.207c-2.096-0.26-3.39-1.789-3.019-4.417
			c0.212-1.673,0.728-3.169,0.979-4.839c-0.646-0.059-1.489,0.032-2.159-0.052c0.142-0.903,0.328-1.97,0.521-2.913
			c0.72-0.049,1.566-0.002,2.333-0.013c0.242-0.812,0.356-1.731,0.591-2.573C76.171,9.291,77.634,8.912,79.071,8.517"/>
		<path fill="#FFFFFF" d="M49.468,18.906c-1.3,0.002-3.056,0.399-3.056,1.631c0,0.966,1.036,1.29,1.987,1.143
			c1.358-0.222,2.253-1.486,2.422-2.723C50.426,18.872,49.843,18.906,49.468,18.906 M53.729,24.232h-3.403
			c-0.005-0.482,0.109-1.044,0.143-1.583c-0.707,0.953-1.758,1.669-3.197,1.833c-1.627,0.194-3.32-0.192-4.12-1.156
			c-0.492-0.616-0.774-1.53-0.723-2.448c0.055-1.009,0.475-1.875,1.079-2.486c1.542-1.579,4.607-2.02,7.741-1.647
			c0.236-1.71-1.292-2.087-2.986-1.945c-1.231,0.106-2.295,0.578-3.013,0.897c0.086-0.986,0.252-2.05,0.395-3.02
			c1.463-0.483,3.1-0.799,5.122-0.677c2.331,0.113,4.343,1.299,4.461,3.616c0.089,1.48-0.33,2.972-0.673,4.402
			C54.22,21.408,53.918,22.834,53.729,24.232"/>
		<path fill="#FFFFFF" d="M68.934,24.232c-1.361,0.009-2.829,0-4.309,0c0.372-1.859,0.717-3.65,1.132-5.545
			c0.114-0.593,0.334-1.272,0.293-1.895c-0.044-0.804-0.568-1.278-1.394-1.334c-0.853-0.052-1.625,0.332-2.067,0.77
			c-0.42,0.39-0.753,1.013-0.954,1.629c-0.105,0.332-0.151,0.706-0.237,1.062c-0.377,1.735-0.771,3.68-1.141,5.312
			c-1.152,0.008-2.735-0.01-4.169,0c0.762-4.03,1.766-7.81,2.387-11.985c1.259,0.013,2.595-0.034,3.834,0.015
			c-0.039,0.579-0.19,1.242-0.283,1.853c0.291-0.192,0.51-0.48,0.766-0.719c0.953-0.86,2.343-1.57,4.308-1.395
			c1.833,0.151,3.055,1.588,3.228,3.415c0.133,1.26-0.104,2.349-0.315,3.41C69.651,20.603,69.301,22.511,68.934,24.232"/>
		<path fill="#FFFFFF" d="M84.16,19.927c-0.151,0.242-0.241,0.65-0.108,0.989c0.246,0.688,1.117,0.87,1.893,0.764
			c1.377-0.225,2.201-1.382,2.478-2.715C86.807,18.764,84.822,18.917,84.16,19.927 M91.306,24.232H87.89
			c0.02-0.562,0.112-1.057,0.153-1.617c-0.706,0.986-1.723,1.703-3.21,1.867c-2.858,0.36-5.084-0.881-4.795-3.896
			c0.109-1.205,0.822-2.15,1.773-2.764c1.12-0.725,2.496-1.106,4.166-1.205c0.957-0.055,1.923,0.057,2.823,0.126
			c0.312-1.137-0.626-1.815-1.65-1.945c-1.745-0.196-3.228,0.426-4.337,0.897c0.102-1.04,0.283-2.001,0.389-3.009
			c1.631-0.589,4.367-1.013,6.439-0.485c1.938,0.485,3.352,1.785,3.185,4.309c-0.05,0.641-0.221,1.311-0.371,1.97
			C92.056,20.314,91.546,22.279,91.306,24.232"/>
		<path fill="#FFFFFF" d="M136.593,16.43c-0.388,0.527-0.811,1.305-0.862,2.208c-0.094,1.521,0.619,2.738,2.058,2.68
			c1.735-0.085,2.978-1.766,2.976-3.696c-0.005-1.516-0.768-2.571-2.257-2.384C137.596,15.369,137.036,15.818,136.593,16.43
			 M134.148,7.037h4.037c-0.398,2.166-0.965,4.406-1.438,6.606c0.81-0.745,1.813-1.516,3.259-1.629
			c3.143-0.273,4.865,1.724,5.064,4.416c0.008,0.343,0.003,0.778,0,1.159c-0.199,3.878-2.426,6.947-6.317,6.954
			c-2.171,0.025-3.416-0.969-4.168-2.472c-0.205,0.692-0.38,1.463-0.612,2.178h-3.839c1.16-4.066,1.97-8.527,2.979-12.808
			c0.176-0.724,0.354-1.441,0.5-2.185c0.15-0.724,0.304-1.486,0.488-2.159C134.098,7.053,134.109,7.04,134.148,7.037"/>
		<path fill="#FFFFFF" d="M162.094,7.037c1.393,0.007,2.836-0.041,4.186,0.007c-1.176,5.75-2.362,11.495-3.575,17.205
			c-1.388-0.013-2.863,0.038-4.213-0.013c1.169-5.735,2.36-11.436,3.556-17.138C162.046,7.053,162.057,7.04,162.094,7.037"/>
		<path fill="#FFFFFF" d="M103.574,8.224h4.31c-1.085,5.376-2.192,10.709-3.341,16.027c-1.408-0.015-2.887,0.036-4.273-0.015
			c0.047-0.703,0.206-1.377,0.344-2.043c0.911-4.605,1.973-9.271,2.914-13.908C103.527,8.242,103.537,8.229,103.574,8.224"/>
		<path fill="#FFFFFF" d="M117.423,12.699c-0.243,0.958-0.571,1.854-0.864,2.761c-0.947-0.385-2.537-0.757-3.916-0.646
			c-0.541,0.07-1.097,0.287-1.283,0.742c-0.115,0.731,0.517,0.884,1.078,1.125c1.244,0.523,2.787,0.941,3.56,1.893
			c0.285,0.353,0.515,0.824,0.517,1.463c0.01,1.145-0.393,2.052-0.955,2.723c-1.297,1.538-3.787,1.915-6.457,1.721
			c-1.154-0.086-2.246-0.287-3.268-0.612c0.279-0.926,0.539-1.88,0.823-2.833c0.763,0.333,1.948,0.621,3.14,0.706
			c0.146,0.005,0.299,0.005,0.45,0c0.819-0.051,1.776-0.182,2.048-0.812c0.01-0.335,0.012-0.471-0.135-0.672
			c-0.393-0.553-1.383-0.708-2.104-0.993c-1.408-0.537-2.82-1.44-2.68-3.538c0.049-0.722,0.314-1.313,0.707-1.8
			c0.912-1.133,2.579-1.757,4.495-1.914C114.501,11.835,115.954,12.301,117.423,12.699"/>
		<path fill="#FFFFFF" d="M121.559,19.75c-0.238,0.274-0.436,0.764-0.238,1.238c0.332,0.799,1.539,0.87,2.396,0.562
			c1.103-0.413,1.761-1.473,1.96-2.58C124.18,18.821,122.348,18.875,121.559,19.75 M128.538,24.249
			c-1.132-0.013-2.304,0.038-3.397-0.013c0.055-0.541,0.096-1.092,0.185-1.587c-0.857,1.123-2.104,1.894-4.052,1.894
			c-2.176,0-3.662-0.957-3.946-2.74c-0.085-0.471-0.085-0.968,0-1.41c0.387-2.35,2.702-3.441,5.233-3.711
			c1.137-0.11,2.401-0.021,3.506,0.077c0.309-1.711-1.31-2.059-2.979-1.945c-1.209,0.117-2.337,0.605-3.021,0.899
			c0.133-1.013,0.246-2.049,0.422-3.024c1.443-0.481,3.13-0.814,5.168-0.675c2.836,0.194,4.716,1.776,4.388,4.811
			c-0.121,1.241-0.499,2.475-0.784,3.68C128.977,21.747,128.745,22.994,128.538,24.249"/>
		<path fill="#FFFFFF" d="M152.695,14.802c-1.625,0.01-2.574,1.045-2.916,2.303h4.97C154.771,15.719,154.096,14.794,152.695,14.802
			 M157.924,19.5h-8.427c0.028,2.791,4.007,2.436,6.063,1.723c0.312-0.105,0.597-0.235,0.875-0.296
			c-0.181,0.969-0.332,1.97-0.525,2.929c-2.059,0.67-4.883,0.998-6.893,0.237c-2.039-0.767-3.66-2.581-3.465-5.547
			c0.113-1.873,0.922-3.369,1.959-4.465c0.822-0.899,1.729-1.438,2.973-1.78c0.781-0.232,1.869-0.377,2.979-0.287
			c2.843,0.212,4.519,1.844,4.761,4.699C158.309,17.639,158.148,18.588,157.924,19.5"/>
	</g>
</g>
<g id="jumbo">
	<g>
		<path fill="#FFFFFF" d="M66.838,32.43c0.378-0.382,0.823-0.686,1.312-0.88c0.492-0.184,0.963-0.269,1.458-0.269
			c0.508,0,1.002,0.085,1.491,0.269c0.494,0.194,0.93,0.498,1.311,0.88l0.552,0.547l-1.103,1.09L71.3,33.544
			c-0.212-0.246-0.501-0.427-0.772-0.55c-0.305-0.085-0.607-0.15-0.919-0.15c-0.276,0-0.583,0.065-0.877,0.15
			c-0.303,0.123-0.563,0.304-0.779,0.55c-0.235,0.2-0.416,0.454-0.541,0.755c-0.118,0.307-0.177,0.604-0.177,0.887
			c0,0.313,0.059,0.613,0.177,0.914c0.125,0.274,0.306,0.562,0.541,0.774c0.458,0.483,1.02,0.7,1.656,0.7
			c0.321,0,0.63-0.039,0.928-0.158c0.298-0.12,0.552-0.305,0.764-0.542l0.559-0.522l1.103,1.082l-0.552,0.551
			c-0.38,0.384-0.816,0.683-1.311,0.873c-0.489,0.193-0.983,0.271-1.491,0.271c-0.495,0-0.966-0.077-1.458-0.271
			c-0.489-0.19-0.935-0.489-1.312-0.873c-0.377-0.379-0.68-0.805-0.866-1.303c-0.185-0.461-0.265-0.953-0.265-1.492
			c0-0.496,0.08-0.969,0.265-1.463C66.158,33.24,66.461,32.802,66.838,32.43"/>
		<path fill="#FFFFFF" d="M75.814,33.552c-0.461,0.479-0.702,1.009-0.702,1.685c0,0.365,0.101,0.701,0.254,1.011
			c0.129-0.123,0.359-0.328,0.63-0.627c0.292-0.269,0.608-0.577,0.92-0.89c0.318-0.318,0.63-0.629,0.934-0.937
			c0.303-0.3,0.516-0.515,0.692-0.687c-0.442-0.198-0.925-0.307-1.42-0.229C76.626,32.967,76.188,33.174,75.814,33.552
			 M79.732,36.374l1.089,1.106l-0.528,0.524c-0.377,0.367-0.808,0.675-1.291,0.869c-0.467,0.194-0.968,0.302-1.503,0.302
			c-0.513,0-1.02-0.107-1.504-0.302c-0.464-0.194-0.896-0.502-1.271-0.869c-0.378-0.377-0.679-0.819-0.861-1.284
			c-0.195-0.492-0.271-0.99-0.271-1.486c0-0.502,0.076-0.988,0.271-1.487c0.182-0.459,0.482-0.888,0.861-1.276
			c0.383-0.383,0.815-0.674,1.308-0.871c0.465-0.188,0.96-0.295,1.468-0.295c0.5,0,0.989,0.107,1.49,0.295
			c0.487,0.197,0.921,0.488,1.304,0.871l0.528,0.523l-4.348,4.376c0.443,0.233,0.902,0.3,1.404,0.229
			c0.489-0.101,0.934-0.304,1.305-0.685L79.732,36.374z"/>
		<path fill="#FFFFFF" d="M81.672,33.677c0.193-0.452,0.489-0.88,0.824-1.247c0.366-0.334,0.792-0.63,1.255-0.83
			c0.482-0.195,0.996-0.304,1.538-0.304c0.534,0,1.064,0.106,1.521,0.304c0.489,0.2,0.886,0.496,1.252,0.83
			c0.368,0.367,0.637,0.795,0.863,1.247c0.194,0.482,0.307,0.991,0.307,1.548v3.942h-1.557v-3.942c0-0.349-0.071-0.664-0.188-0.926
			c-0.118-0.301-0.297-0.555-0.507-0.755c-0.223-0.235-0.483-0.376-0.784-0.5c-0.273-0.126-0.583-0.185-0.908-0.185
			c-0.344,0-0.659,0.059-0.924,0.185c-0.298,0.124-0.552,0.265-0.754,0.5c-0.23,0.2-0.376,0.454-0.501,0.755
			c-0.123,0.262-0.182,0.577-0.182,0.926v3.942H81.36v-3.942C81.36,34.668,81.444,34.159,81.672,33.677"/>
		<path fill="#FFFFFF" d="M90.892,32.43c0.41-0.382,0.816-0.686,1.311-0.88c0.491-0.184,0.991-0.269,1.484-0.269
			c0.503,0,1,0.085,1.493,0.269c0.461,0.194,0.901,0.498,1.285,0.88l0.554,0.547l-1.081,1.09l-0.563-0.521
			c-0.238-0.246-0.496-0.427-0.796-0.55c-0.276-0.085-0.577-0.149-0.891-0.149c-0.303,0-0.605,0.064-0.876,0.149
			c-0.304,0.123-0.564,0.304-0.805,0.55c-0.236,0.2-0.421,0.454-0.513,0.755c-0.118,0.306-0.18,0.604-0.18,0.886
			c0,0.314,0.062,0.614,0.18,0.916c0.091,0.273,0.276,0.562,0.513,0.773c0.457,0.484,1.014,0.7,1.681,0.7
			c0.319,0,0.62-0.039,0.903-0.158c0.305-0.12,0.554-0.304,0.784-0.542l0.563-0.523l1.081,1.084l-0.554,0.551
			c-0.384,0.383-0.823,0.682-1.285,0.873c-0.493,0.192-0.99,0.271-1.493,0.271c-0.494,0-0.994-0.077-1.484-0.271
			c-0.495-0.191-0.9-0.49-1.311-0.873c-0.377-0.381-0.645-0.807-0.84-1.305c-0.182-0.459-0.291-0.951-0.291-1.49
			c0-0.496,0.109-0.969,0.291-1.463C90.247,33.24,90.514,32.802,90.892,32.43"/>
		<path fill="#FFFFFF" d="M99.184,35.234c0,0.324,0.039,0.632,0.163,0.926c0.122,0.281,0.3,0.529,0.529,0.768
			c0.201,0.196,0.453,0.377,0.754,0.504c0.277,0.125,0.586,0.187,0.936,0.187c0.318,0,0.631-0.062,0.902-0.187
			c0.301-0.127,0.555-0.308,0.791-0.504c0.2-0.236,0.376-0.486,0.501-0.768c0.123-0.294,0.185-0.602,0.185-0.926
			c0-0.321-0.062-0.627-0.185-0.93c-0.125-0.271-0.301-0.519-0.501-0.744c-0.236-0.211-0.49-0.392-0.791-0.509
			c-0.271-0.126-0.583-0.192-0.902-0.192c-0.35,0-0.659,0.066-0.936,0.192c-0.301,0.117-0.554,0.298-0.754,0.509
			c-0.229,0.227-0.407,0.474-0.529,0.744C99.222,34.607,99.184,34.913,99.184,35.234 M97.63,35.234c0-0.553,0.089-1.065,0.311-1.545
			c0.195-0.459,0.488-0.889,0.826-1.224c0.366-0.36,0.793-0.655,1.256-0.858c0.489-0.195,0.996-0.305,1.543-0.305
			c0.525,0,1.062,0.108,1.519,0.305c0.484,0.203,0.884,0.498,1.252,0.858c0.371,0.335,0.633,0.765,0.858,1.224
			c0.195,0.479,0.312,0.992,0.312,1.545c0,0.543-0.117,1.051-0.312,1.516c-0.225,0.49-0.487,0.915-0.858,1.256
			c-0.369,0.365-0.769,0.66-1.252,0.865c-0.457,0.189-0.993,0.306-1.519,0.306c-0.547,0-1.054-0.116-1.543-0.306
			c-0.463-0.205-0.89-0.5-1.256-0.865c-0.338-0.341-0.631-0.766-0.826-1.256C97.719,36.285,97.63,35.777,97.63,35.234"/>
		<path fill="#FFFFFF" d="M113.098,31.281v1.562h-4.752c-0.207,0-0.396,0.074-0.562,0.212c-0.142,0.17-0.211,0.354-0.211,0.566
			c0,0.23,0.069,0.422,0.211,0.556c0.165,0.175,0.354,0.251,0.562,0.251h3.176c0.312,0,0.623,0.055,0.889,0.184
			c0.302,0.121,0.561,0.302,0.761,0.5c0.226,0.197,0.378,0.447,0.509,0.748c0.116,0.295,0.178,0.58,0.178,0.927
			c0,0.317-0.062,0.634-0.178,0.901c-0.131,0.287-0.283,0.551-0.509,0.754c-0.2,0.225-0.459,0.377-0.761,0.508
			c-0.266,0.119-0.577,0.179-0.889,0.179h-4.744v-1.554h4.744c0.209,0,0.395-0.082,0.564-0.217c0.137-0.162,0.207-0.356,0.207-0.571
			c0-0.234-0.07-0.412-0.207-0.565c-0.171-0.168-0.355-0.23-0.564-0.23h-3.176c-0.32,0-0.635-0.061-0.93-0.19
			c-0.27-0.118-0.516-0.303-0.721-0.505c-0.227-0.227-0.379-0.482-0.5-0.757c-0.123-0.288-0.191-0.597-0.191-0.915
			c0-0.333,0.068-0.634,0.191-0.938c0.121-0.266,0.273-0.511,0.5-0.721c0.205-0.224,0.451-0.376,0.721-0.5
			c0.295-0.125,0.609-0.184,0.93-0.184H113.098z"/>
		<path fill="#FFFFFF" d="M122.236,31.281v3.902c0,0.547-0.111,1.06-0.311,1.549c-0.193,0.463-0.492,0.892-0.834,1.252
			c-0.367,0.369-0.791,0.64-1.251,0.834c-0.487,0.225-0.993,0.31-1.55,0.31c-0.52,0-1.055-0.085-1.508-0.31
			c-0.496-0.194-0.914-0.465-1.258-0.834c-0.364-0.36-0.629-0.789-0.851-1.252c-0.198-0.489-0.31-1.002-0.31-1.549v-3.902h1.557
			v3.902c0,0.354,0.061,0.659,0.186,0.937c0.127,0.301,0.297,0.557,0.511,0.754c0.228,0.229,0.479,0.414,0.743,0.53
			c0.304,0.131,0.609,0.17,0.93,0.17s0.636-0.039,0.936-0.17c0.303-0.116,0.551-0.301,0.756-0.53
			c0.229-0.197,0.384-0.453,0.506-0.754c0.119-0.276,0.185-0.583,0.185-0.937v-3.902H122.236z"/>
		<path fill="#FFFFFF" d="M126.664,37.574c0.32,0,0.627-0.039,0.9-0.17c0.297-0.117,0.551-0.301,0.752-0.53
			c0.23-0.197,0.41-0.453,0.502-0.751c0.127-0.279,0.186-0.585,0.186-0.938v-2.342h-2.34c-0.346,0-0.659,0.065-0.936,0.182
			c-0.301,0.132-0.554,0.281-0.762,0.51c-0.224,0.205-0.4,0.457-0.529,0.749c-0.095,0.274-0.153,0.582-0.153,0.901
			c0,0.354,0.06,0.658,0.153,0.938c0.129,0.298,0.307,0.554,0.529,0.751c0.208,0.229,0.461,0.413,0.762,0.53
			C126.005,37.535,126.318,37.574,126.664,37.574 M130.568,28.115v7.068c0,0.547-0.084,1.06-0.309,1.549
			c-0.201,0.463-0.467,0.892-0.832,1.252c-0.367,0.369-0.763,0.64-1.254,0.834c-0.488,0.225-0.99,0.31-1.511,0.31
			c-0.554,0-1.054-0.085-1.535-0.31c-0.471-0.194-0.897-0.465-1.263-0.834c-0.371-0.36-0.643-0.789-0.833-1.252
			c-0.229-0.489-0.316-1.002-0.316-1.549c0-0.518,0.087-1.062,0.316-1.516c0.19-0.479,0.462-0.884,0.833-1.249
			c0.365-0.367,0.792-0.632,1.263-0.831c0.481-0.22,0.981-0.309,1.535-0.309h2.34v-3.165L130.568,28.115L130.568,28.115z"/>
		<path fill="#FFFFFF" d="M142.477,12.116c-0.658-1.712-1.855-3.196-3.342-4.26c-1.55-1.105-3.447-1.697-5.35-1.698
			c-0.281-0.001-0.562,0.013-0.844,0.038c-2.998,0.248-5.784,2.084-7.256,4.701c-1.104,1.924-1.479,4.252-1.033,6.426
			c0.348,1.748,1.223,3.39,2.48,4.655c1.643,1.717,3.982,2.756,6.364,2.817c0.097,0.003,0.192,0.005,0.288,0.005v0.001
			c1.781,0.002,3.564-0.52,5.056-1.499c1.888-1.222,3.316-3.137,3.925-5.305C143.307,16.075,143.21,13.975,142.477,12.116z
			 M137.357,19.081c-0.933,0.943-2.25,1.484-3.572,1.485v-0.001c-0.207,0-0.415-0.013-0.622-0.041
			c-1.985-0.231-3.737-1.748-4.269-3.67c-0.494-1.663-0.016-3.557,1.172-4.814c0.779-0.849,1.851-1.427,2.992-1.596
			c0.24-0.033,0.483-0.048,0.727-0.048c0.938,0.004,1.873,0.264,2.666,0.768c1.469,0.901,2.441,2.585,2.417,4.317
			C138.895,16.825,138.309,18.143,137.357,19.081z"/>
		<path fill="#FFFFFF" d="M123.434,17.439c-0.361-1.138-1.189-2.055-2.173-2.703c0.657-0.419,1.287-0.94,1.595-1.676
			c0.617-1.442,0.379-3.209-0.562-4.46c-0.731-0.994-1.858-1.645-3.043-1.945c-0.136-0.036-0.269-0.066-0.407-0.089
			c-0.74-0.129-1.496-0.107-2.246-0.104c-0.104,0.001-0.207,0.001-0.311-0.001c-1.416,0.003-2.832-0.005-4.248,0.001
			c-0.873-0.008-1.711,0.578-2.01,1.397c-0.188,0.522-0.143,1.086-0.146,1.631c0.007,4.284-0.004,8.569,0.005,12.854
			c-0.025,1.107,0.916,2.133,2.03,2.165c1.538,0.036,3.077,0.003,4.616,0.015h0.062v0.002c0.745-0.006,1.504,0.027,2.246-0.062
			c0.26-0.029,0.52-0.077,0.777-0.146c1.535-0.39,2.947-1.407,3.64-2.852C123.889,20.224,123.866,18.737,123.434,17.439z
			 M114.168,10.421c0.811,0.013,1.62,0.006,2.43,0.006c0.268,0.001,0.532,0.002,0.801,0.004c0.555,0.008,1.131,0.269,1.445,0.731
			v0.001c0.053,0.077,0.098,0.158,0.135,0.246c0.164,0.422,0.119,0.934-0.135,1.313c-0.059,0.087-0.128,0.168-0.209,0.239
			c-0.363,0.325-0.861,0.469-1.344,0.464h-0.693v-0.001c-0.81-0.002-1.619-0.004-2.43,0.005
			C114.105,12.429,114.105,11.42,114.168,10.421z M118.844,20.128L118.844,20.128c-0.289,0.256-0.658,0.42-1.055,0.427
			c-0.396,0.005-0.794,0.006-1.191,0.007v-0.001c-0.813,0-1.63-0.004-2.445-0.003c-0.047-1.159-0.022-2.322-0.012-3.483
			c0.818-0.013,1.639-0.011,2.457-0.01v0.001c0.354,0.001,0.711,0.001,1.065,0.001c0.433-0.006,0.856,0.161,1.181,0.441
			c0.233,0.199,0.414,0.455,0.514,0.746C119.628,18.923,119.361,19.672,118.844,20.128z"/>
		<path fill="#FFFFFF" d="M102.923,6.47c-0.487-0.106-0.985-0.148-1.481-0.131c-1.038,0.036-2.066,0.334-2.963,0.855
			c-0.383,0.223-0.744,0.487-1.07,0.787c-1.002-0.808-2.18-1.443-3.481-1.584c-1.912-0.278-3.936,0.395-5.306,1.758
			c-1.241,1.173-1.968,2.874-1.95,4.582c0.008,3.328-0.003,6.658,0.006,9.987c0.013,1.07,0.959,2.022,2.03,2.043
			c1.186,0.074,2.273-0.98,2.247-2.166c0.023-3.331-0.004-6.664,0.013-9.996c0.03-1.128,1.119-2.077,2.238-1.976
			c1.08,0.05,2.011,1.019,2.024,2.1c0.012,3.329-0.003,6.66,0.006,9.99c-0.002,1.189,1.165,2.18,2.337,2.041
			c0.325-0.024,0.635-0.133,0.906-0.303c0.626-0.394,1.053-1.11,1.028-1.861c-0.001-3.288-0.003-6.576,0-9.863
			c-0.011-1.065,0.897-1.997,1.935-2.1c0.12-0.012,0.244-0.013,0.369-0.001c0.877,0.045,1.661,0.7,1.912,1.532
			c0.118,0.429,0.077,0.88,0.083,1.319c-0.001,3.039-0.002,6.079,0,9.118c-0.038,1.057,0.825,2.037,1.874,2.15
			c1.184,0.174,2.381-0.826,2.398-2.029c0.015-3.328,0-6.658,0.007-9.986C108.145,9.769,105.831,7.003,102.923,6.47z"/>
		<path fill="#FFFFFF" d="M85.125,16.104V8.615c0.029-0.77-0.426-1.492-1.077-1.872c-0.323-0.19-0.696-0.295-1.082-0.277
			c-1.087,0.009-2.063,0.956-2.081,2.048c-0.015,3.029,0.005,6.061-0.009,9.091c-0.05,1.609-1.534,3.01-3.147,2.957
			c-1.546,0.013-2.979-1.28-3.081-2.831c-0.025-3.08,0.02-6.163-0.021-9.244c-0.027-1.313-1.463-2.35-2.717-1.93
			c-0.883,0.246-1.549,1.131-1.514,2.053c0.001,2.914,0.001,5.829,0.001,8.742c-0.035,1.515,0.436,3.036,1.312,4.271
			c1.05,1.545,2.724,2.646,4.55,3.027c1.752,0.367,3.632,0.064,5.178-0.838c1.069-0.614,1.969-1.507,2.611-2.558
			c0.416-0.68,0.723-1.426,0.897-2.204C85.181,18.086,85.119,17.087,85.125,16.104z"/>
		<path fill="#FFFFFF" d="M58.947,6.81L58.947,6.81C58,7.42,57.757,8.823,58.388,9.738c0.41,0.61,1.143,0.96,1.873,0.939
			c1.441,0.001,2.882,0.004,4.324-0.004c0.021,2.31-0.003,4.621,0.011,6.932c0.173,1.576-1.253,3.072-2.834,2.954
			c-1.388-0.045-2.581-1.331-2.542-2.716c0.03-0.968-0.695-1.877-1.641-2.072c-0.906-0.225-1.912,0.23-2.339,1.058
			c-0.43,0.803-0.239,1.751-0.076,2.601c0.522,2.33,2.339,4.312,4.613,5.035c1.724,0.576,3.673,0.412,5.282-0.43
			c2.238-1.132,3.764-3.547,3.773-6.063c0.005-3.122,0.002-6.243,0.001-9.361c0.031-1.126-0.958-2.133-2.081-2.14
			c-1.792-0.022-3.584,0.011-5.374-0.016C60.562,6.438,59.66,6.316,58.947,6.81"/>
	</g>
</g>
</svg>
