<?xml version="1.0" encoding="utf-8"?>
<!-- Generator: Adobe Illustrator 16.0.0, SVG Export Plug-In . SVG Version: 6.00 Build 0)  -->
<!DOCTYPE svg PUBLIC "-//W3C//DTD SVG 1.1//EN" "http://www.w3.org/Graphics/SVG/1.1/DTD/svg11.dtd">
<svg version="1.1" id="Capa_1" xmlns="http://www.w3.org/2000/svg" xmlns:xlink="http://www.w3.org/1999/xlink" x="0px" y="0px"
	 width="547px" height="130px" viewBox="0 0 547 130" enable-background="new 0 0 547 130" xml:space="preserve">
<g>
	<path fill="#005489" d="M69.516,100.604c-25.033,0-45.321-17.403-45.321-38.871c0-21.469,20.277-37.988,45.308-37.988
		c25.027,0,47.974,15.838,47.974,37.311C117.477,82.522,94.54,100.604,69.516,100.604 M70.838,21.312
		c-32.752,0-59.298,18.295-59.298,40.862c0,22.564,26.546,40.869,59.298,40.869c32.747,0,59.3-18.305,59.3-40.869
		C130.138,39.607,103.585,21.312,70.838,21.312"/>
	<path fill="#AE1022" d="M84.503,63.038L71.48,74.219c-1.685,1.412-3.049,2.376-4.078,2.902c-1.039,0.517-2.168,0.778-3.412,0.778
		c-1.939,0-3.575-0.605-4.894-1.82c-1.319-1.211-1.979-2.698-1.979-4.458c0-1.086,0.198-2.282,0.595-3.57
		c0.401-1.288,1.19-3.21,2.365-5.762c0.222-0.53,0.438-0.991,0.647-1.366c0.204-0.396,0.372-0.716,0.5-0.981l-0.193-0.16
		c-3.085,2.709-6.112,5.567-9.067,8.575c-2.488,2.476-4.464,4.32-5.929,5.546c-1.465,1.22-2.784,2.134-3.96,2.748
		c-1.178,0.616-2.229,0.918-3.155,0.918c-2.069,0-3.702-0.68-4.913-2.035c-1.213-1.356-1.817-3.206-1.817-5.551
		c0-2.954,1.528-7.733,4.581-14.331c2.734-5.863,4.857-9.792,6.352-11.785c2.2-2.771,4.718-4.152,7.554-4.152
		c1.721,0,3.146,0.333,4.275,1.017c1.133,0.674,1.695,1.564,1.695,2.654c0,2.001-0.911,5.055-2.739,9.162
		c-0.7,1.521-1.421,3.243-2.158,5.166l0.193,0.159c1.179-1.09,3.07-2.974,5.688-5.641c4.495-4.645,7.881-7.809,10.173-9.492
		c2.942-2.289,5.636-3.437,8.075-3.437c1.082,0,2.107,0.305,3.094,0.915c0.981,0.614,1.769,1.431,2.357,2.454
		c0.586,1.022,0.877,2.092,0.877,3.212c0,1.142-0.962,4.073-2.897,8.797c-0.401,0.987-0.712,1.762-0.927,2.324
		c-0.221,0.566-0.421,1.039-0.606,1.441l0.238,0.162c0.443-0.373,0.841-0.705,1.188-1.001c0.347-0.292,0.735-0.605,1.163-0.939
		c0.428-0.331,0.831-0.642,1.212-0.938c0.853-0.695,3.015-2.519,6.473-5.474c2.282-2.137,4.067-3.591,5.378-4.38
		c1.304-0.786,2.564-1.182,3.768-1.182c1.974,0,3.48,0.569,4.514,1.701c1.034,1.13,1.549,2.804,1.549,5.016
		c0,1.35-0.254,3.5-0.769,6.427c-0.441,3.303-0.747,5.891-0.921,7.771c-0.176,1.879-0.266,3.187-0.266,3.934
		c0,0.561,0.038,1.275,0.114,2.137c0.077,0.863,0.206,1.792,0.386,2.778c0.184,0.986,0.43,2.071,0.728,3.273
		c0.365,1.466,0.605,2.609,0.728,3.44c-0.254,0.952-1.083,1.767-2.491,2.434c-1.409,0.668-2.939,0.995-4.588,0.995
		c-2.591,0-5.024-0.982-7.305-2.957c-1.018-0.902-1.795-1.812-2.354-2.73c-0.551-0.923-0.949-2.015-1.185-3.277
		c-0.238-1.27-0.354-2.938-0.354-5.015c0-1.357,0.188-4.164,0.571-8.424l-0.188-0.16L84.503,63.038z"/>
	<path fill="#005489" d="M189.275,102.486h12.855V70.939h-20.302l-6.547,19.21l-6.065-19.21h-20.623v31.547h12.866v-24.64
		l8.435,24.64h10.849l8.532-24.64V102.486z M232.992,91.619h-8.902l4.583-11.104L232.992,91.619z M252.316,102.486l-14.5-31.547
		h-17.626l-15.554,31.547h14.895l1.293-3.103h15.25l1.186,3.103H252.316z M285.348,86.722c0,0.868-0.065,1.627-0.2,2.276
		c-0.123,0.642-0.332,1.239-0.598,1.787l-3.667-3.332l-6.516,5.644l2.35,2.097h-0.708c-2.889,0-5.119-0.74-6.686-2.205
		c-1.572-1.467-2.35-3.552-2.35-6.267c0-2.757,0.788-4.872,2.356-6.335c1.586-1.471,3.851-2.195,6.828-2.195
		c2.972,0,5.245,0.725,6.825,2.195C284.561,81.85,285.348,83.965,285.348,86.722 M298.723,94.043
		c1.049-2.075,1.561-4.499,1.561-7.321c0-5.492-2.024-9.624-6.078-12.422c-4.062-2.793-10.072-4.191-18.049-4.191
		c-7.981,0-13.988,1.398-18.05,4.191c-4.053,2.798-6.085,6.93-6.085,12.422c0,5.521,2.038,9.662,6.133,12.441
		c4.096,2.771,10.224,4.151,18.381,4.151c1.664,0,3.199-0.062,4.61-0.168c1.41-0.107,2.694-0.299,3.864-0.536l6.728,6.077
		l6.568-5.624l-4.343-3.866C296.092,97.814,297.674,96.1,298.723,94.043 M348.458,87.502V70.939h-13.903v15.413
		c0,3.191-0.537,5.386-1.616,6.61c-1.069,1.219-2.949,1.831-5.639,1.831c-2.688,0-4.574-0.612-5.671-1.846
		c-1.079-1.231-1.631-3.425-1.631-6.596V70.939h-13.903v16.562c0,5.446,1.706,9.452,5.12,12.016c3.425,2.555,8.777,3.85,16.067,3.85
		c7.337,0,12.711-1.278,16.101-3.836C346.772,96.982,348.458,92.98,348.458,87.502 M356.341,102.486h13.898V70.939h-13.898V102.486z
		 M405.601,81.126c0,1.256-0.425,2.132-1.294,2.642c-0.865,0.498-2.427,0.765-4.695,0.765h-7.62v-6.824h7.62
		c2.269,0,3.83,0.258,4.695,0.759C405.176,78.975,405.601,79.853,405.601,81.126 M420.801,81.168c0-3.258-1.366-5.764-4.13-7.565
		c-2.762-1.778-6.675-2.663-11.742-2.663H378.09v31.547h13.901V91.39h12.938c5.067,0,8.98-0.904,11.742-2.677
		C419.435,86.929,420.801,84.408,420.801,81.168 M446.496,91.619h-8.895l4.578-11.104L446.496,91.619z M450.764,102.486h15.062
		l-14.507-31.547h-17.622l-15.555,31.547h14.891l1.294-3.103h15.249L450.764,102.486z M496.525,102.486h15.58V70.939h-13.449v18.174
		l-13.862-18.174h-16.435v31.547h13.103V84.014L496.525,102.486z M528.217,85.698c-0.25,0.21-0.682,0.318-1.293,0.318h-0.915v-2.295
		h1c0.575,0,0.984,0.108,1.222,0.318c0.241,0.215,0.359,0.492,0.359,0.83C528.59,85.207,528.467,85.483,528.217,85.698
		 M529.188,87.717c-0.155-0.151-0.396-0.295-0.721-0.43c0.794-0.203,1.372-0.527,1.741-0.979c0.368-0.447,0.553-0.98,0.553-1.595
		c0-0.789-0.243-1.416-0.727-1.886c-0.481-0.469-1.262-0.703-2.337-0.703h-3.804v9.18h2.115v-3.61
		c0.108-0.023,0.199-0.035,0.26-0.035c0.277,0,0.556,0.172,0.831,0.513c0.281,0.341,0.824,1.386,1.636,3.133h2.503
		c-0.902-1.739-1.361-2.625-1.376-2.654C529.627,88.235,529.402,87.926,529.188,87.717 M533.918,86.713
		c0,1.916-0.63,3.547-1.881,4.899c-1.255,1.355-2.769,2.032-4.54,2.032c-1.772,0-3.286-0.677-4.537-2.032
		c-1.255-1.353-1.882-2.983-1.882-4.899c0-1.911,0.627-3.547,1.882-4.898c1.251-1.354,2.765-2.032,4.537-2.032
		c1.771,0,3.285,0.679,4.54,2.032C533.288,83.166,533.918,84.802,533.918,86.713 M535.46,86.713c0-1.529-0.357-2.959-1.068-4.29
		c-0.711-1.333-1.682-2.38-2.914-3.143c-1.229-0.768-2.555-1.15-3.98-1.15c-1.417,0-2.742,0.383-3.969,1.15
		c-1.234,0.763-2.202,1.81-2.913,3.143c-0.714,1.331-1.068,2.761-1.068,4.29c0,1.538,0.354,2.972,1.068,4.299
		c0.711,1.328,1.679,2.375,2.913,3.139c1.227,0.766,2.552,1.148,3.969,1.148c1.426,0,2.752-0.383,3.98-1.148
		c1.232-0.764,2.203-1.811,2.914-3.139C535.103,89.685,535.46,88.251,535.46,86.713"/>
	<path fill="#005489" d="M166.323,28.857c0,1.212-0.54,2.488-1.619,3.829c-1.077,1.341-2.697,2.496-4.853,3.458
		c-1.63,0.721-3.744,1.228-6.34,1.526c0.948-3.718,2.424-6.529,4.434-8.432c2.007-1.905,3.905-2.855,5.695-2.855
		c0.858,0,1.521,0.229,1.987,0.686C166.091,27.525,166.323,28.121,166.323,28.857 M168.35,33.068
		c1.157-1.333,1.736-2.728,1.736-4.184c0-1.034-0.446-1.93-1.341-2.685c-0.895-0.753-2.272-1.13-4.132-1.13
		c-2.578,0-5.085,0.757-7.523,2.276c-2.438,1.515-4.464,3.642-6.079,6.378c-1.614,2.737-2.418,5.411-2.418,8.025
		c0,1.947,0.647,3.727,1.946,5.341c1.297,1.613,3.227,2.419,5.786,2.419c3.772,0,7.734-2.06,11.893-6.184l-0.553-0.76
		c-2.299,1.771-4.029,2.915-5.197,3.432c-1.167,0.518-2.38,0.775-3.644,0.775c-1.579,0-2.919-0.546-4.025-1.642
		c-1.104-1.098-1.657-2.426-1.657-3.986c0-0.579,0.062-1.307,0.185-2.185c3.562-0.403,6.322-0.963,8.287-1.683
		C164.579,36.208,166.823,34.802,168.35,33.068 M205.062,46.353c1.114-1.228,1.889-2.192,2.329-2.896l-0.87-0.551
		c-0.876,1.263-1.814,2.281-2.814,3.052c-0.439,0.333-0.746,0.5-0.919,0.5c-0.176,0-0.316-0.062-0.421-0.186
		c-0.158-0.173-0.237-0.384-0.237-0.63s0.316-1.48,0.947-3.709l2.893-10.234c0.315-1.14,0.474-2.219,0.474-3.236
		c0-1.159-0.259-2.013-0.775-2.564c-0.518-0.553-1.182-0.829-1.986-0.829c-1.386,0-2.79,0.595-4.211,1.787
		c-2.561,2.158-5.268,5.912-8.128,11.261l1.869-6.683c0.402-1.385,0.604-2.506,0.604-3.367c0-0.877-0.29-1.596-0.869-2.157
		s-1.307-0.841-2.181-0.841c-1.021,0-1.992,0.28-2.921,0.841c-1.58,0.983-3.202,2.561-4.866,4.736
		c-1.07,1.402-2.369,3.499-3.896,6.287l3.42-11.864l-9.075,1.655l0.236,0.975c1.034-0.209,1.666-0.315,1.895-0.315
		c0.543,0,0.989,0.154,1.342,0.459c0.349,0.309,0.525,0.654,0.525,1.041c0,0.157-0.062,0.403-0.184,0.737l-0.63,2.21l-4.868,17.046
		h3.893c1.648-5.225,2.695-8.322,3.131-9.286c0.912-2.052,2.196-4.201,3.855-6.445c1.657-2.245,3.011-3.71,4.063-4.394
		c0.65-0.422,1.264-0.632,1.843-0.632c0.28,0,0.517,0.114,0.71,0.342c0.192,0.229,0.29,0.579,0.29,1.052
		c0,0.58-0.246,1.728-0.737,3.447l-4.499,15.915h3.973c1.209-4.138,2.508-7.533,3.894-10.179c2.104-4.017,4.366-7.139,6.787-9.368
		c0.823-0.752,1.604-1.131,2.341-1.131c0.263,0,0.5,0.124,0.71,0.37c0.193,0.247,0.29,0.588,0.29,1.025
		c0,0.315-0.026,0.641-0.079,0.973c-0.035,0.21-0.325,1.289-0.869,3.237l-2.394,8.443c-0.721,2.545-1.08,4.237-1.08,5.079
		c0,0.614,0.208,1.13,0.62,1.551c0.411,0.421,0.925,0.632,1.54,0.632c0.665,0,1.393-0.218,2.183-0.657
		C202.995,48.413,203.948,47.58,205.062,46.353 M230.7,31.699c0,1.736-0.287,3.492-0.856,5.262c-0.57,1.771-1.215,3.312-1.934,4.616
		c-0.72,1.309-1.529,2.462-2.433,3.46c-0.903,1-1.828,1.754-2.775,2.262c-0.947,0.51-1.878,0.764-2.789,0.764
		c-1.841,0-3.306-0.648-4.394-1.948l2.288-7.865c0.86-2.911,2.215-5.455,4.063-7.63c1.852-2.174,3.724-3.261,5.618-3.261
		c0.86,0,1.608,0.374,2.249,1.117C230.378,29.222,230.7,30.296,230.7,31.699 M230.489,43.524c3.14-3.989,4.708-7.914,4.708-11.772
		c0-1.983-0.552-3.59-1.655-4.828c-1.108-1.238-2.44-1.854-4.001-1.854c-1.562,0-3.091,0.447-4.591,1.341
		c-1.5,0.893-3.205,2.464-5.117,4.709l1.815-6.05l-9.023,1.341v1.027c0.911-0.125,1.622-0.186,2.13-0.186
		c0.562,0,0.979,0.132,1.25,0.395c0.27,0.262,0.406,0.631,0.406,1.105c0,0.352-0.2,1.255-0.604,2.71l-6.655,23.043
		c-0.632,2.229-1.231,3.586-1.802,4.079c-0.57,0.49-1.671,0.773-3.301,0.841l-0.264,0.975h12.391l0.235-0.975
		c-1.351,0-2.253-0.074-2.709-0.225c-0.457-0.148-0.784-0.358-0.986-0.63c-0.202-0.271-0.304-0.603-0.304-0.987
		c0-0.402,0.194-1.271,0.581-2.603l1.92-6.789c0.84,0.493,1.599,0.834,2.276,1.027c0.674,0.193,1.449,0.289,2.326,0.289
		C223.693,49.509,227.348,47.514,230.489,43.524 M257.585,30.385c0.597-1.055,0.896-2.158,0.896-3.316
		c0-0.649-0.167-1.145-0.5-1.486c-0.336-0.341-0.79-0.513-1.368-0.513c-0.894,0-2.052,0.595-3.474,1.787
		c-2.508,2.089-5.296,5.755-8.364,10.997l3.789-12.784l-9.079,1.473l0.184,0.974c0.982-0.158,1.658-0.236,2.026-0.236
		c0.579,0,1.044,0.141,1.395,0.42c0.263,0.21,0.395,0.475,0.395,0.789c0,0.808-0.283,2.158-0.844,4.052l-4.865,16.336h4.025
		l0.839-3.312c0.106-0.405,0.528-1.607,1.264-3.606c0.527-1.455,1.157-2.761,1.894-3.918c1.701-2.737,3.28-4.965,4.737-6.684
		c0.928-1.121,1.622-1.805,2.078-2.051c0.261-0.139,0.542-0.211,0.839-0.211c0.193,0,0.363,0.072,0.5,0.211
		c0.123,0.105,0.202,0.324,0.237,0.658c0.07,0.543,0.252,0.947,0.54,1.209c0.288,0.263,0.638,0.395,1.04,0.395
		C256.558,31.567,257.165,31.172,257.585,30.385 M275.055,28.857c0,1.212-0.542,2.488-1.619,3.829
		c-1.079,1.341-2.696,2.496-4.854,3.458c-1.63,0.721-3.745,1.228-6.34,1.526c0.947-3.718,2.422-6.529,4.433-8.432
		c2.009-1.905,3.907-2.855,5.695-2.855c0.858,0,1.52,0.229,1.986,0.686C274.82,27.525,275.055,28.121,275.055,28.857
		 M277.079,33.068c1.158-1.333,1.735-2.728,1.735-4.184c0-1.034-0.446-1.93-1.34-2.685c-0.895-0.753-2.272-1.13-4.129-1.13
		c-2.581,0-5.088,0.757-7.526,2.276c-2.437,1.515-4.464,3.642-6.078,6.378c-1.611,2.737-2.418,5.411-2.418,8.025
		c0,1.947,0.647,3.727,1.946,5.341c1.297,1.613,3.228,2.419,5.789,2.419c3.771,0,7.734-2.06,11.891-6.184l-0.553-0.76
		c-2.301,1.771-4.03,2.915-5.197,3.432c-1.166,0.518-2.38,0.775-3.644,0.775c-1.578,0-2.918-0.546-4.023-1.642
		c-1.106-1.098-1.658-2.426-1.658-3.986c0-0.579,0.061-1.307,0.184-2.185c3.562-0.403,6.324-0.963,8.288-1.683
		C273.309,36.208,275.553,34.802,277.079,33.068 M297.494,33.146l1.604-8.076h-1.001c-0.507,0.823-1.139,1.236-1.892,1.236
		c-0.3,0-0.9-0.171-1.803-0.513c-0.905-0.341-1.479-0.541-1.725-0.593c-0.456-0.087-0.965-0.13-1.524-0.13
		c-1.946,0-3.54,0.587-4.775,1.762c-1.237,1.176-1.854,2.615-1.854,4.315c0,0.929,0.224,1.858,0.67,2.788
		c0.449,0.93,1.457,2.326,3.024,4.184c1.572,1.858,2.601,3.315,3.091,4.366c0.282,0.597,0.423,1.246,0.423,1.947
		c0,1.087-0.391,2.005-1.173,2.75c-0.778,0.744-1.836,1.118-3.167,1.118c-1.739,0-3.106-0.553-4.104-1.657
		c-1.001-1.106-1.554-2.99-1.66-5.657h-0.973l-1.605,8.524h0.972c0.406-0.806,1.001-1.21,1.791-1.21
		c0.314,0,0.763,0.105,1.342,0.315c1.648,0.597,3.104,0.895,4.367,0.895c2.316,0,4.229-0.705,5.748-2.119
		c1.518-1.41,2.274-3.029,2.274-4.854c0-1.122-0.331-2.314-0.999-3.577c-0.664-1.262-2.138-3.139-4.421-5.631
		c-0.856-0.947-1.415-1.681-1.668-2.208c-0.255-0.525-0.383-1.079-0.383-1.658c0-0.842,0.321-1.56,0.962-2.158
		c0.64-0.595,1.503-0.893,2.59-0.893c1.35,0,2.48,0.536,3.395,1.605c0.911,1.068,1.409,2.78,1.499,5.13H297.494z M319.673,30.673
		c0,3.945-1.501,7.795-4.5,11.549c-2.245,2.824-4.322,4.235-6.234,4.235c-0.773,0-1.457-0.348-2.053-1.039
		c-0.597-0.693-0.894-1.634-0.894-2.828c0-2.368,0.697-5.016,2.09-7.944c1.396-2.929,2.987-5.139,4.776-6.63
		c1.263-1.053,2.455-1.58,3.578-1.58c1,0,1.788,0.334,2.367,1.002C319.381,28.103,319.673,29.182,319.673,30.673 M320.671,42.906
		l5.131-17.836l-4.184,0.63l-0.947,3c-0.367-1.298-0.908-2.228-1.617-2.789c-0.71-0.562-1.602-0.841-2.671-0.841
		c-1.787,0-3.691,0.736-5.708,2.21c-2.578,1.859-4.706,4.337-6.379,7.432c-1.675,3.095-2.515,6.036-2.515,8.826
		c0,1.858,0.467,3.318,1.395,4.381c0.93,1.059,2.035,1.59,3.316,1.59c1.332,0,2.69-0.431,4.076-1.289
		c1.931-1.193,4.044-3.288,6.342-6.288l-0.553,1.972c-0.386,1.405-0.577,2.537-0.577,3.395c0,0.719,0.187,1.267,0.565,1.646
		c0.376,0.376,0.942,0.564,1.695,0.564c1.088,0,2.27-0.479,3.551-1.434c1.279-0.955,2.525-2.346,3.736-4.17l-0.894-0.631
		c-1.142,1.598-2.055,2.65-2.737,3.158c-0.37,0.281-0.667,0.42-0.895,0.42c-0.21,0-0.386-0.08-0.524-0.235
		c-0.177-0.213-0.265-0.457-0.265-0.738c0-0.157,0.027-0.351,0.08-0.58L320.671,42.906z M347.006,25.07h-1.002
		c-0.507,0.823-1.139,1.236-1.892,1.236c-0.298,0-0.899-0.171-1.802-0.513c-0.906-0.341-1.479-0.541-1.726-0.593
		c-0.454-0.087-0.963-0.13-1.524-0.13c-1.947,0-3.538,0.587-4.773,1.762c-1.239,1.176-1.855,2.615-1.855,4.315
		c0,0.929,0.222,1.858,0.669,2.788c0.448,0.93,1.456,2.326,3.027,4.184c1.568,1.858,2.599,3.315,3.091,4.366
		c0.279,0.597,0.421,1.246,0.421,1.947c0,1.087-0.392,2.005-1.172,2.75c-0.779,0.744-1.835,1.118-3.17,1.118
		c-1.734,0-3.104-0.553-4.102-1.657c-1.002-1.106-1.554-2.99-1.659-5.657h-0.972l-1.607,8.524h0.972
		c0.406-0.806,1.002-1.21,1.792-1.21c0.313,0,0.762,0.105,1.343,0.315c1.647,0.597,3.102,0.895,4.364,0.895
		c2.317,0,4.232-0.705,5.751-2.119c1.514-1.41,2.273-3.029,2.273-4.854c0-1.122-0.332-2.314-1-3.577
		c-0.665-1.262-2.138-3.139-4.419-5.631c-0.86-0.947-1.415-1.681-1.67-2.208c-0.254-0.525-0.382-1.079-0.382-1.658
		c0-0.842,0.32-1.56,0.96-2.158c0.641-0.595,1.504-0.893,2.592-0.893c1.35,0,2.481,0.536,3.394,1.605
		c0.911,1.068,1.409,2.78,1.5,5.13h0.973L347.006,25.07z"/>
</g>
</svg>
