<?xml version="1.0" encoding="utf-8"?>
<!-- Generator: Adobe Illustrator 16.0.0, SVG Export Plug-In . SVG Version: 6.00 Build 0)  -->
<!DOCTYPE svg PUBLIC "-//W3C//DTD SVG 1.1//EN" "http://www.w3.org/Graphics/SVG/1.1/DTD/svg11.dtd">
<svg version="1.1" id="Capa_1" xmlns="http://www.w3.org/2000/svg" xmlns:xlink="http://www.w3.org/1999/xlink" x="0px" y="0px"
	 width="428px" height="250px" viewBox="0 0 428 250" enable-background="new 0 0 428 250" xml:space="preserve">
<g>
	<path fill="#005489" d="M200.181,111.711c-26.608,0-48.171-18.501-48.171-41.321c0-22.816,21.553-40.368,48.157-40.368
		c26.601,0,50.989,16.826,50.989,39.649C251.156,92.49,226.779,111.711,200.181,111.711 M201.586,27.432
		c-34.811,0-63.028,19.446-63.028,43.431c0,23.982,28.218,43.438,63.028,43.438c34.805,0,63.029-19.455,63.029-43.438
		C264.615,46.878,236.391,27.432,201.586,27.432"/>
	<path fill="#AE1022" d="M216.109,71.781l-13.842,11.883c-1.791,1.5-3.239,2.524-4.332,3.082c-1.104,0.552-2.307,0.832-3.626,0.832
		c-2.062,0-3.803-0.645-5.201-1.938c-1.405-1.287-2.104-2.863-2.104-4.736c0-1.159,0.208-2.426,0.631-3.795
		c0.428-1.369,1.265-3.414,2.515-6.125c0.233-0.562,0.465-1.055,0.687-1.455c0.218-0.42,0.397-0.761,0.531-1.037l-0.201-0.174
		c-3.281,2.879-6.498,5.918-9.641,9.116c-2.643,2.632-4.743,4.592-6.3,5.892c-1.556,1.297-2.961,2.271-4.211,2.925
		c-1.251,0.657-2.37,0.976-3.352,0.976c-2.201,0-3.937-0.723-5.223-2.164c-1.292-1.444-1.934-3.404-1.934-5.902
		c0-3.138,1.627-8.215,4.871-15.233c2.907-6.227,5.162-10.405,6.753-12.522c2.335-2.942,5.015-4.412,8.026-4.412
		c1.829,0,3.344,0.354,4.543,1.08c1.205,0.716,1.802,1.661,1.802,2.819c0,2.127-0.968,5.377-2.909,9.739
		c-0.747,1.615-1.514,3.443-2.293,5.488l0.202,0.171c1.257-1.158,3.263-3.161,6.047-5.997c4.775-4.934,8.376-8.298,10.814-10.087
		c3.125-2.433,5.988-3.654,8.58-3.654c1.148,0,2.241,0.326,3.291,0.973c1.041,0.653,1.879,1.522,2.504,2.609
		c0.626,1.09,0.931,2.222,0.931,3.41c0,1.222-1.021,4.333-3.079,9.355c-0.427,1.051-0.76,1.871-0.984,2.472
		c-0.234,0.601-0.45,1.104-0.646,1.532l0.255,0.171c0.468-0.396,0.892-0.748,1.26-1.066c0.368-0.312,0.781-0.64,1.238-0.998
		c0.454-0.352,0.885-0.683,1.288-0.998c0.908-0.735,3.201-2.675,6.879-5.819c2.422-2.269,4.326-3.814,5.715-4.655
		c1.385-0.833,2.727-1.254,4.008-1.254c2.098,0,3.695,0.607,4.795,1.81c1.1,1.201,1.648,2.983,1.648,5.331
		c0,1.437-0.27,3.722-0.816,6.83c-0.475,3.512-0.795,6.264-0.98,8.262c-0.189,1.993-0.281,3.385-0.281,4.179
		c0,0.597,0.041,1.359,0.119,2.272c0.084,0.918,0.223,1.906,0.412,2.953c0.193,1.051,0.457,2.203,0.775,3.479
		c0.385,1.557,0.643,2.774,0.771,3.657c-0.27,1.012-1.152,1.877-2.65,2.586s-3.123,1.058-4.877,1.058
		c-2.752,0-5.34-1.044-7.76-3.142c-1.084-0.961-1.91-1.926-2.504-2.904c-0.588-0.982-1.008-2.141-1.258-3.483
		c-0.252-1.349-0.377-3.121-0.377-5.331c0-1.44,0.199-4.428,0.607-8.954l-0.201-0.168L216.109,71.781z"/>
	<path fill="#005489" d="M51.645,215.977h13.663v-33.533H43.729l-6.959,20.418l-6.45-20.418H8.404v33.533h13.673v-26.191
		l8.964,26.191h11.534l9.069-26.191V215.977z M98.11,204.42h-9.462l4.872-11.797L98.11,204.42z M118.647,215.977l-15.411-33.533
		H84.501L67.97,215.977h15.832l1.374-3.301h16.209l1.261,3.301H118.647z M153.758,199.217c0,0.926-0.071,1.729-0.212,2.418
		c-0.131,0.684-0.353,1.32-0.636,1.902l-3.896-3.541l-6.929,5.994l2.498,2.232h-0.749c-3.073,0-5.443-0.783-7.109-2.348
		c-1.67-1.559-2.498-3.771-2.498-6.658c0-2.928,0.837-5.176,2.505-6.734c1.688-1.559,4.094-2.332,7.256-2.332
		c3.156,0,5.574,0.773,7.255,2.332C152.921,194.041,153.758,196.289,153.758,199.217 M167.973,207
		c1.116-2.205,1.662-4.785,1.662-7.783c0-5.838-2.153-10.227-6.464-13.201c-4.314-2.973-10.705-4.457-19.183-4.457
		c-8.483,0-14.87,1.484-19.186,4.457c-4.309,2.975-6.468,7.363-6.468,13.201c0,5.869,2.165,10.271,6.518,13.225
		c4.354,2.945,10.867,4.412,19.536,4.412c1.771,0,3.402-0.064,4.901-0.178c1.499-0.115,2.864-0.318,4.107-0.568l7.153,6.461
		l6.979-5.986l-4.613-4.104C165.179,211.002,166.856,209.182,167.973,207 M220.836,200.049v-17.605H206.06v16.375
		c0,3.396-0.573,5.732-1.719,7.031c-1.136,1.297-3.136,1.945-5.993,1.945c-2.856,0-4.863-0.648-6.03-1.957
		c-1.143-1.312-1.727-3.645-1.727-7.02v-16.375h-14.783v17.605c0,5.789,1.815,10.045,5.444,12.768
		c3.641,2.717,9.329,4.09,17.079,4.09c7.799,0,13.509-1.354,17.112-4.074C219.043,210.125,220.836,205.865,220.836,200.049
		 M229.215,215.977h14.771v-33.533h-14.771V215.977z M281.572,193.27c0,1.332-0.453,2.266-1.379,2.812
		c-0.916,0.525-2.578,0.807-4.986,0.807h-8.102v-7.252h8.102c2.408,0,4.07,0.271,4.986,0.807
		C281.119,190.982,281.572,191.916,281.572,193.27 M297.732,193.316c0-3.467-1.453-6.127-4.396-8.045
		c-2.934-1.889-7.092-2.828-12.48-2.828H252.33v33.533h14.775v-11.801h13.75c5.389,0,9.547-0.959,12.48-2.838
		C296.279,199.436,297.732,196.758,297.732,193.316 M325.039,204.42h-9.453l4.865-11.797L325.039,204.42z M329.576,215.977h16.012
		l-15.422-33.533h-18.729L294.9,215.977h15.828l1.377-3.301h16.207L329.576,215.977z M378.215,215.977h16.559v-33.533H380.48v19.316
		l-14.732-19.316h-17.469v33.533h13.926v-19.639L378.215,215.977z"/>
	<path fill="#005489" d="M114.884,138.346c0.011,1.287-0.557,2.645-1.692,4.078c-1.136,1.436-2.847,2.676-5.132,3.713
		c-1.726,0.781-3.972,1.336-6.725,1.674c0.976-3.957,2.524-6.961,4.644-8.994c2.12-2.041,4.134-3.068,6.037-3.082
		c0.91-0.006,1.618,0.234,2.115,0.713C114.628,136.928,114.879,137.564,114.884,138.346 M117.066,142.801
		c1.222-1.424,1.829-2.91,1.817-4.459c-0.008-1.098-0.492-2.045-1.449-2.842c-0.954-0.795-2.423-1.184-4.398-1.17
		c-2.741,0.02-5.399,0.846-7.979,2.482c-2.581,1.623-4.715,3.902-6.412,6.822c-1.691,2.924-2.528,5.768-2.509,8.551
		c0.015,2.066,0.719,3.953,2.112,5.658c1.393,1.707,3.448,2.551,6.172,2.529c4.004-0.029,8.204-2.252,12.588-6.668l-0.593-0.803
		c-2.427,1.898-4.261,3.129-5.497,3.686c-1.237,0.562-2.521,0.846-3.864,0.855c-1.677,0.012-3.108-0.559-4.292-1.715
		c-1.182-1.16-1.781-2.566-1.794-4.225c-0.005-0.615,0.055-1.389,0.18-2.322c3.784-0.453,6.714-1.074,8.797-1.852
		C113.086,146.17,115.46,144.66,117.066,142.801 M156.194,156.641c1.172-1.311,1.988-2.346,2.451-3.094l-0.928-0.582
		c-0.923,1.346-1.913,2.436-2.969,3.268c-0.465,0.352-0.789,0.533-0.976,0.537c-0.186,0-0.336-0.062-0.447-0.193
		c-0.17-0.186-0.255-0.41-0.258-0.672c-0.002-0.256,0.326-1.574,0.977-3.951l2.997-10.895c0.326-1.215,0.485-2.359,0.479-3.447
		c-0.01-1.23-0.29-2.129-0.842-2.717c-0.557-0.584-1.261-0.873-2.117-0.867c-1.473,0.01-2.961,0.662-4.461,1.939
		c-2.706,2.311-5.558,6.32-8.556,12.025l1.937-7.113c0.416-1.479,0.622-2.67,0.615-3.588c-0.006-0.932-0.32-1.689-0.937-2.285
		c-0.621-0.59-1.399-0.885-2.329-0.879c-1.084,0.01-2.114,0.314-3.098,0.918c-1.669,1.059-3.381,2.748-5.137,5.074
		c-1.125,1.496-2.49,3.734-4.089,6.711l3.542-12.637l-9.634,1.832l0.261,1.033c1.099-0.23,1.768-0.35,2.011-0.352
		c0.578-0.004,1.053,0.158,1.428,0.477c0.376,0.328,0.566,0.689,0.569,1.104c0.001,0.164-0.064,0.428-0.192,0.783l-0.65,2.357
		l-5.043,18.152l4.138-0.029c1.712-5.566,2.797-8.865,3.255-9.895c0.954-2.189,2.303-4.482,4.049-6.879
		c1.743-2.398,3.173-3.969,4.286-4.701c0.684-0.459,1.335-0.68,1.95-0.684c0.3-0.002,0.553,0.113,0.759,0.354
		c0.207,0.244,0.312,0.611,0.315,1.117c0.004,0.613-0.246,1.836-0.757,3.67l-4.658,16.945l4.224-0.027
		c1.254-4.406,2.605-8.025,4.059-10.848c2.207-4.287,4.585-7.619,7.141-10.008c0.87-0.809,1.697-1.215,2.48-1.219
		c0.279-0.002,0.533,0.125,0.757,0.389c0.207,0.256,0.312,0.613,0.316,1.086c0.002,0.334-0.021,0.678-0.075,1.033
		c-0.034,0.223-0.337,1.371-0.899,3.447l-2.479,8.994c-0.743,2.709-1.114,4.508-1.108,5.4c0.004,0.654,0.227,1.207,0.672,1.646
		c0.439,0.443,0.986,0.668,1.641,0.662c0.706-0.004,1.478-0.246,2.314-0.715C154.012,158.846,155.019,157.953,156.194,156.641
		 M183.326,140.865c0.015,1.85-0.275,3.713-0.866,5.6c-0.591,1.889-1.266,3.527-2.022,4.924c-0.753,1.398-1.606,2.623-2.559,3.697
		c-0.952,1.068-1.927,1.877-2.933,2.424c-1.001,0.545-1.986,0.826-2.958,0.836c-1.957,0.012-3.518-0.668-4.685-2.039l2.372-8.377
		c0.893-3.102,2.312-5.814,4.261-8.145c1.95-2.32,3.932-3.49,5.944-3.506c0.914-0.008,1.714,0.383,2.398,1.17
		C182.969,138.236,183.316,139.377,183.326,140.865 M183.195,153.438c3.304-4.266,4.945-8.449,4.915-12.551
		c-0.016-2.104-0.615-3.812-1.799-5.117c-1.187-1.309-2.606-1.955-4.268-1.943c-1.661,0.016-3.28,0.504-4.866,1.465
		c-1.589,0.959-3.389,2.643-5.404,5.043l1.885-6.445l-9.582,1.498l0.008,1.092c0.971-0.141,1.724-0.213,2.266-0.215
		c0.597-0.004,1.036,0.133,1.331,0.412c0.29,0.273,0.438,0.668,0.44,1.17c0.002,0.375-0.205,1.34-0.619,2.883l-6.899,24.549
		c-0.651,2.371-1.28,3.822-1.886,4.348c-0.599,0.521-1.768,0.834-3.502,0.918l-0.271,1.033l13.169-0.094l0.245-1.033
		c-1.437,0.01-2.397-0.062-2.883-0.223c-0.485-0.152-0.837-0.371-1.054-0.658c-0.216-0.287-0.328-0.637-0.329-1.047
		c-0.004-0.428,0.198-1.354,0.597-2.771l1.987-7.227c0.899,0.516,1.708,0.871,2.43,1.072c0.718,0.195,1.541,0.299,2.475,0.289
		C176.018,159.854,179.89,157.703,183.195,153.438 M211.895,139.264c0.626-1.127,0.934-2.305,0.924-3.535
		c-0.006-0.688-0.186-1.211-0.542-1.576c-0.357-0.357-0.844-0.537-1.456-0.535c-0.951,0.01-2.176,0.654-3.682,1.934
		c-2.648,2.236-5.584,6.154-8.805,11.748l3.929-13.619l-9.635,1.641l0.203,1.033c1.04-0.176,1.758-0.27,2.146-0.27
		c0.616-0.006,1.111,0.141,1.487,0.436c0.284,0.225,0.425,0.502,0.427,0.836c0.006,0.855-0.284,2.299-0.863,4.312l-5.047,17.402
		l4.278-0.031l0.868-3.525c0.108-0.428,0.547-1.711,1.313-3.842c0.552-1.557,1.209-2.947,1.984-4.184
		c1.787-2.92,3.448-5.299,4.984-7.139c0.978-1.199,1.709-1.932,2.191-2.197c0.276-0.154,0.576-0.225,0.892-0.229
		c0.206-0.004,0.383,0.068,0.534,0.219c0.13,0.109,0.213,0.344,0.253,0.693c0.08,0.58,0.275,1.008,0.584,1.287
		c0.312,0.277,0.681,0.414,1.107,0.412C210.809,140.527,211.45,140.104,211.895,139.264 M230.451,137.506
		c0.006,1.287-0.559,2.645-1.695,4.078c-1.137,1.436-2.842,2.676-5.129,3.713c-1.727,0.779-3.969,1.336-6.73,1.674
		c0.98-3.957,2.527-6.961,4.652-8.994c2.113-2.041,4.129-3.066,6.025-3.082c0.916-0.006,1.621,0.232,2.117,0.713
		C230.188,136.092,230.443,136.723,230.451,137.506 M232.633,141.961c1.219-1.424,1.822-2.91,1.812-4.459
		c-0.01-1.102-0.49-2.045-1.445-2.842c-0.959-0.795-2.426-1.184-4.4-1.17c-2.742,0.018-5.4,0.846-7.977,2.482
		c-2.582,1.623-4.717,3.902-6.413,6.822c-1.692,2.924-2.527,5.768-2.508,8.551c0.015,2.07,0.719,3.953,2.107,5.658
		c1.396,1.705,3.452,2.551,6.175,2.529c4.006-0.029,8.201-2.252,12.59-6.668l-0.596-0.803c-2.428,1.898-4.26,3.129-5.494,3.686
		c-1.238,0.562-2.527,0.846-3.867,0.855c-1.676,0.012-3.105-0.559-4.293-1.715c-1.182-1.158-1.777-2.566-1.791-4.225
		c-0.004-0.615,0.055-1.389,0.18-2.322c3.781-0.453,6.713-1.072,8.793-1.852C228.65,145.33,231.023,143.82,232.633,141.961
		 M254.334,141.891l1.641-8.602l-1.062,0.01c-0.533,0.885-1.203,1.324-2.004,1.33c-0.314,0.004-0.959-0.178-1.916-0.531
		c-0.967-0.355-1.576-0.561-1.838-0.617c-0.486-0.086-1.027-0.131-1.621-0.129c-2.072,0.016-3.756,0.66-5.062,1.91
		c-1.307,1.26-1.949,2.797-1.938,4.602c0.006,0.992,0.25,1.973,0.736,2.961c0.479,0.982,1.562,2.459,3.242,4.42
		c1.688,1.961,2.791,3.504,3.322,4.619c0.301,0.631,0.457,1.32,0.459,2.066c0.012,1.16-0.4,2.127-1.221,2.93
		c-0.822,0.797-1.941,1.203-3.357,1.215c-1.848,0.012-3.307-0.564-4.375-1.73c-1.074-1.168-1.674-3.17-1.805-6.002l-1.039,0.01
		l-1.641,9.074l1.037-0.006c0.42-0.865,1.053-1.299,1.893-1.305c0.334-0.004,0.812,0.105,1.43,0.324
		c1.752,0.625,3.305,0.93,4.646,0.922c2.461-0.02,4.492-0.787,6.09-2.299c1.602-1.514,2.4-3.238,2.383-5.178
		c-0.01-1.193-0.369-2.457-1.09-3.793c-0.713-1.338-2.301-3.32-4.744-5.953c-0.914-0.998-1.516-1.775-1.789-2.338
		c-0.273-0.553-0.414-1.141-0.422-1.756c-0.006-0.895,0.336-1.658,1.008-2.301c0.68-0.627,1.592-0.959,2.748-0.967
		c1.43-0.01,2.639,0.551,3.619,1.68c0.977,1.133,1.521,2.949,1.631,5.439L254.334,141.891z M277.887,139.088
		c0.029,4.201-1.537,8.297-4.695,12.311c-2.363,3.021-4.562,4.537-6.596,4.549c-0.818,0.006-1.549-0.352-2.188-1.086
		c-0.641-0.734-0.963-1.732-0.973-3.002c-0.016-2.516,0.703-5.338,2.164-8.459c1.457-3.121,3.131-5.486,5.021-7.082
		c1.334-1.129,2.598-1.699,3.787-1.705c1.068-0.012,1.908,0.338,2.529,1.043C277.557,136.359,277.875,137.506,277.887,139.088
		 M279.045,152.086l5.311-18.998l-4.438,0.697l-0.986,3.201c-0.398-1.377-0.98-2.359-1.738-2.955
		c-0.762-0.592-1.711-0.881-2.85-0.873c-1.896,0.014-3.92,0.811-6.051,2.393c-2.727,1.996-4.967,4.646-6.721,7.949
		c-1.756,3.305-2.623,6.438-2.6,9.402c0.016,1.977,0.518,3.523,1.514,4.645c0.996,1.117,2.176,1.676,3.537,1.668
		c1.412-0.01,2.855-0.479,4.32-1.41c2.041-1.279,4.27-3.521,6.689-6.73l-0.568,2.104c-0.404,1.496-0.594,2.701-0.586,3.609
		c0.006,0.766,0.205,1.354,0.609,1.752c0.4,0.391,1.004,0.59,1.809,0.588c1.158-0.01,2.408-0.531,3.766-1.559
		c1.35-1.021,2.666-2.514,3.936-4.459l-0.955-0.666c-1.199,1.705-2.16,2.832-2.883,3.377c-0.395,0.305-0.707,0.455-0.951,0.455
		c-0.221,0.006-0.408-0.08-0.559-0.246c-0.184-0.225-0.285-0.484-0.287-0.785c0-0.164,0.027-0.367,0.084-0.611L279.045,152.086z
		 M306.895,132.922l-1.064,0.006c-0.531,0.883-1.201,1.328-2.002,1.33c-0.322,0.004-0.959-0.174-1.918-0.527
		c-0.965-0.359-1.576-0.564-1.838-0.621c-0.486-0.084-1.027-0.131-1.629-0.129c-2.064,0.016-3.748,0.662-5.055,1.914
		c-1.305,1.256-1.951,2.793-1.939,4.6c0.006,0.99,0.254,1.971,0.732,2.957c0.486,0.984,1.566,2.461,3.248,4.422
		c1.686,1.961,2.791,3.504,3.324,4.619c0.301,0.633,0.455,1.32,0.459,2.066c0.014,1.158-0.4,2.129-1.225,2.932
		c-0.818,0.793-1.941,1.203-3.359,1.213c-1.844,0.012-3.305-0.566-4.375-1.727c-1.07-1.168-1.674-3.174-1.805-6.002l-1.035,0.006
		l-1.637,9.078l1.029-0.01c0.424-0.865,1.059-1.299,1.898-1.307c0.332-0.002,0.811,0.107,1.428,0.326
		c1.754,0.625,3.303,0.934,4.643,0.924c2.461-0.02,4.496-0.787,6.096-2.301c1.604-1.512,2.393-3.238,2.379-5.178
		c-0.006-1.189-0.367-2.455-1.09-3.795c-0.715-1.336-2.299-3.318-4.74-5.947c-0.918-0.996-1.516-1.781-1.793-2.336
		c-0.268-0.559-0.414-1.143-0.416-1.758c-0.006-0.896,0.326-1.662,1.006-2.305c0.672-0.627,1.59-0.957,2.746-0.969
		c1.434-0.01,2.639,0.553,3.617,1.68c0.979,1.135,1.52,2.955,1.635,5.443l1.035-0.01L306.895,132.922z"/>
	<path fill="#005489" d="M411.895,198.125c-0.262,0.23-0.721,0.346-1.371,0.346h-0.973v-2.441h1.062c0.611,0,1.049,0.113,1.301,0.34
		c0.256,0.229,0.381,0.52,0.381,0.881C412.295,197.598,412.164,197.902,411.895,198.125 M412.93,200.273
		c-0.16-0.162-0.418-0.312-0.766-0.457c0.84-0.215,1.457-0.561,1.85-1.035c0.396-0.484,0.59-1.051,0.59-1.699
		c0-0.838-0.26-1.506-0.771-2.006c-0.512-0.496-1.346-0.748-2.488-0.748h-4.045v9.76h2.252v-3.836
		c0.119-0.025,0.211-0.039,0.277-0.039c0.295,0,0.59,0.182,0.881,0.545c0.301,0.361,0.877,1.471,1.744,3.33h2.658
		c-0.965-1.852-1.447-2.791-1.463-2.822C413.395,200.816,413.156,200.494,412.93,200.273 M417.959,199.209
		c0,2.029-0.668,3.768-2,5.207s-2.941,2.158-4.824,2.158c-1.885,0-3.494-0.719-4.826-2.158c-1.334-1.439-1.996-3.178-1.996-5.207
		c0-2.033,0.662-3.768,1.996-5.207c1.332-1.445,2.941-2.162,4.826-2.162c1.883,0,3.492,0.717,4.824,2.162
		C417.291,195.441,417.959,197.176,417.959,199.209 M419.596,199.209c0-1.627-0.377-3.154-1.137-4.562
		c-0.754-1.414-1.785-2.529-3.09-3.342c-1.311-0.812-2.719-1.217-4.234-1.217c-1.504,0-2.916,0.404-4.219,1.217
		c-1.311,0.812-2.342,1.928-3.098,3.342c-0.76,1.408-1.135,2.936-1.135,4.562c0,1.635,0.375,3.15,1.135,4.568
		c0.756,1.414,1.787,2.521,3.098,3.338c1.303,0.811,2.715,1.221,4.219,1.221c1.516,0,2.924-0.41,4.234-1.221
		c1.305-0.816,2.336-1.924,3.09-3.338C419.219,202.359,419.596,200.844,419.596,199.209"/>
</g>
</svg>
