<?xml version="1.0" encoding="utf-8"?>
<!-- Generator: Adobe Illustrator 16.0.0, SVG Export Plug-In . SVG Version: 6.00 Build 0)  -->
<!DOCTYPE svg PUBLIC "-//W3C//DTD SVG 1.1//EN" "http://www.w3.org/Graphics/SVG/1.1/DTD/svg11.dtd">
<svg version="1.1" xmlns="http://www.w3.org/2000/svg" xmlns:xlink="http://www.w3.org/1999/xlink" x="0px" y="0px" width="209px"
	 height="45.75px" viewBox="0 0 209 45.75" enable-background="new 0 0 209 45.75" xml:space="preserve">
<g id="Capa_1" display="none">
	<rect y="-0.25" display="inline" fill="#0000FF" width="209" height="46"/>
</g>
<g id="Capa_2" display="none">
	
		<image display="inline" overflow="visible" width="871" height="187" xlink:href="../../../dashboard/images/cliente01.png"  transform="matrix(0.2353 0 0 0.2353 2.9595 1.7505)">
	</image>
</g>
<g id="Capa_3">
	<polygon fill="#FFFFFF" points="183.59,22.995 196.507,0.441 14.643,0.441 2,22.995 14.643,45.55 196.507,45.55 	"/>
	<polygon fill="#82BC00" points="71.545,13.288 54.26,13.288 54.26,18.437 59.694,18.437 59.694,34.15 66.117,34.15 66.117,18.437 
		71.545,18.437 	"/>
	<polygon fill="#82BC00" points="93.266,18.437 98.698,18.437 98.698,34.15 105.119,34.15 105.117,18.437 110.554,18.437 
		110.554,13.288 93.266,13.288 	"/>
	<polygon fill="#82BC00" points="112.11,18.437 117.547,18.437 117.547,34.15 123.97,34.15 123.97,18.437 129.401,18.437 
		129.401,13.288 112.11,13.288 	"/>
	<path fill="#82BC00" d="M144.38,26.026c0,1.158-0.316,2.057-0.951,2.687c-0.622,0.63-1.486,0.938-2.594,0.938
		c-1.117,0-1.993-0.316-2.625-0.952c-0.625-0.641-0.933-1.539-0.933-2.673V13.288h-6.412v12.436c0,1.027,0.199,2.204,0.601,3.534
		c0.244,0.826,0.694,1.623,1.355,2.405c0.676,0.777,1.41,1.377,2.217,1.808c0.802,0.415,1.802,0.693,2.986,0.836
		c1.203,0.143,2.311,0.212,3.318,0.212c1.751,0,3.249-0.229,4.496-0.695c0.902-0.329,1.754-0.908,2.568-1.722
		c0.82-0.823,1.42-1.788,1.796-2.873c0.39-1.103,0.587-2.27,0.58-3.505V13.288h-6.403V26.026z"/>
	<path fill="#82BC00" d="M170.335,24.274c-0.548-0.921-1.434-1.691-2.648-2.309c-1.211-0.624-3.22-1.241-6.029-1.851
		c-1.136-0.237-1.848-0.487-2.15-0.768c-0.316-0.266-0.469-0.563-0.469-0.899c0-0.454,0.185-0.836,0.563-1.149
		c0.384-0.322,0.944-0.486,1.688-0.486c0.906,0,1.61,0.215,2.123,0.64c0.519,0.43,0.862,1.111,1.023,2.051l6.056-0.353
		c-0.267-2.167-1.099-3.74-2.494-4.73c-1.395-0.992-3.417-1.493-6.072-1.493c-2.163,0.003-3.869,0.28-5.118,0.828
		c-1.234,0.543-2.166,1.291-2.793,2.25c-0.609,0.945-0.918,1.956-0.918,3.034c0,1.63,0.601,2.968,1.813,4.025
		c1.199,1.055,3.207,1.896,6.026,2.535c1.719,0.377,2.815,0.782,3.289,1.21c0.468,0.422,0.708,0.906,0.708,1.45
		c0,0.567-0.253,1.074-0.751,1.506c-0.495,0.423-1.197,0.642-2.114,0.642c-1.229,0-2.172-0.423-2.836-1.266
		c-0.406-0.52-0.673-1.282-0.807-2.279l-6.11,0.385c0.179,2.109,0.95,3.847,2.312,5.21c1.363,1.366,3.808,2.048,7.342,2.047
		c2.014,0,3.681-0.286,5.008-0.867c1.32-0.589,2.351-1.446,3.086-2.573c0.741-1.131,1.111-2.365,1.111-3.7
		C171.174,26.225,170.895,25.193,170.335,24.274"/>
	<path fill="#82BC00" d="M82.378,12.987c-6.033,0-10.927,4.912-10.927,10.968c0,6.055,4.894,10.968,10.927,10.968
		c6.031,0,10.924-4.913,10.924-10.968C93.302,17.898,88.41,12.987,82.378,12.987 M82.378,29.438c-3.018,0-5.461-2.454-5.461-5.483
		c0-3.028,2.444-5.486,5.461-5.486c3.013,0,5.461,2.458,5.461,5.486C87.839,26.983,85.391,29.438,82.378,29.438"/>
	<path fill="#82BC00" d="M31.737,13.765c0-1.966,1.592-3.554,3.554-3.554c1.96,0,3.55,1.588,3.55,3.554
		c0,1.958-1.59,3.549-3.55,3.547C33.329,17.312,31.737,15.723,31.737,13.765"/>
	<path fill="#E2E040" d="M23.923,14.788c0-1.743,1.411-3.154,3.153-3.154c1.747,0,3.161,1.411,3.161,3.154
		c0,1.742-1.415,3.155-3.161,3.155C25.334,17.943,23.923,16.53,23.923,14.788"/>
	<path fill="#E2E040" d="M40.338,14.788c0-1.743,1.415-3.158,3.156-3.158c1.745,0,3.16,1.415,3.16,3.158
		c0,1.742-1.415,3.155-3.16,3.158C41.753,17.946,40.338,16.53,40.338,14.788"/>
	<path fill="#E2E040" d="M40.338,31.203c0-1.743,1.415-3.154,3.156-3.154c1.749,0,3.16,1.411,3.16,3.154
		c0,1.741-1.411,3.156-3.16,3.156C41.753,34.359,40.338,32.944,40.338,31.203"/>
	<path fill="#E2E040" d="M23.923,31.203c0-1.743,1.411-3.154,3.154-3.154c1.746,0,3.158,1.411,3.158,3.154
		c0,1.741-1.412,3.156-3.158,3.156C25.334,34.359,23.923,32.944,23.923,31.203"/>
	<path fill="#4A7628" d="M31.345,22.995c0-2.181,1.767-3.947,3.946-3.947c2.178,0,3.943,1.767,3.943,3.947
		c0,2.178-1.765,3.944-3.943,3.944C33.111,26.939,31.345,25.173,31.345,22.995"/>
	<path fill="#82BC00" d="M31.737,32.229c0-1.96,1.591-3.554,3.554-3.554c1.96,0,3.55,1.594,3.55,3.554
		c0,1.962-1.59,3.552-3.55,3.552C33.328,35.78,31.737,34.19,31.737,32.229"/>
	<path fill="#82BC00" d="M40.97,22.995c0-1.962,1.591-3.554,3.554-3.554c1.959,0,3.551,1.59,3.551,3.554
		c0,1.962-1.592,3.551-3.551,3.551C42.562,26.546,40.97,24.957,40.97,22.995"/>
	<path fill="#82BC00" d="M22.504,22.995c0-1.962,1.589-3.554,3.552-3.554c1.961,0,3.553,1.592,3.553,3.554s-1.592,3.551-3.553,3.551
		C24.093,26.546,22.504,24.957,22.504,22.995"/>
</g>
</svg>
