<?xml version="1.0" encoding="utf-8"?>
<!-- Generator: Adobe Illustrator 16.0.0, SVG Export Plug-In . SVG Version: 6.00 Build 0)  -->
<!DOCTYPE svg PUBLIC "-//W3C//DTD SVG 1.1//EN" "http://www.w3.org/Graphics/SVG/1.1/DTD/svg11.dtd">
<svg version="1.1" id="Capa_1" xmlns="http://www.w3.org/2000/svg" xmlns:xlink="http://www.w3.org/1999/xlink" x="0px" y="0px"
	 width="209px" height="45.109px" viewBox="0 0.441 209 45.109" enable-background="new 0 0.441 209 45.109" xml:space="preserve">
<g id="base_bca">
	<polygon fill="#FFFFFF" points="183.59,22.995 196.507,0.441 14.643,0.441 2,22.995 14.643,45.55 196.507,45.55 	"/>
</g>
<g id="prosepan">
	<path fill="#1D1D1B" d="M52.481,19.808c0,1.593-0.797,2.629-2.549,2.629h-1.965v-5.205h1.965
		C51.685,17.232,52.481,18.241,52.481,19.808 M56.173,19.808c0-3.24-2.152-5.444-5.657-5.444H44.33v16.544h3.638v-5.764h2.444
		C54.048,25.145,56.173,22.889,56.173,19.808 M68.123,19.516c0,1.328-0.771,2.284-2.416,2.284h-2.125v-4.567h2.125
		C67.38,17.232,68.123,18.108,68.123,19.516 M72.079,31.121c0.425,0,0.851-0.053,1.221-0.16v-2.709
		c-0.158,0.027-0.318,0.027-0.478,0.027c-0.531,0-1.009-0.16-1.459-0.824l-2.603-3.824c2.204-0.849,3.054-2.628,3.054-4.274
		c0-3.082-2.018-4.994-5.417-4.994h-6.453v16.544h3.638v-6.613h1.673l2.948,4.567C69.396,30.695,70.486,31.121,72.079,31.121
		 M87.269,22.623c0,3.504-1.407,5.497-4.009,5.497c-2.602,0-3.983-1.966-3.983-5.47c0-3.505,1.381-5.497,3.983-5.497
		C85.862,17.153,87.269,19.118,87.269,22.623 M91.093,22.623c0-4.7-2.656-8.471-7.833-8.471c-5.205,0-7.834,3.93-7.834,8.497
		c0,4.701,2.629,8.472,7.834,8.472C88.437,31.121,91.093,27.189,91.093,22.623 M97.943,18.772c0-1.062,0.771-1.673,2.417-1.673
		c1.514,0,3.028,0.478,3.878,0.875v-3.08c-0.85-0.318-2.364-0.743-4.143-0.743c-3.347,0-5.763,1.514-5.763,4.727
		c0,2.762,1.62,3.957,3.32,4.728c2.495,1.09,3.744,1.248,3.744,2.682c0,1.221-0.93,1.859-2.761,1.859
		c-1.594,0-3.134-0.56-4.329-1.115v3.16c1.274,0.557,2.921,0.93,4.993,0.93c3.373,0,5.896-1.754,5.896-4.967
		c0-3.717-2.497-4.195-4.648-5.284C98.874,20.233,97.943,19.887,97.943,18.772 M109.123,30.908h10.093v-3h-6.452v-4.223h5.495
		v-2.763h-5.495v-3.558h6.452v-3.002h-10.093V30.908z M131.616,19.808c0,1.593-0.796,2.629-2.552,2.629h-1.963v-5.205h1.963
		C130.82,17.232,131.616,18.241,131.616,19.808 M135.307,19.808c0-3.24-2.149-5.444-5.654-5.444h-6.188v16.544h3.64v-5.764h2.44
		C133.184,25.145,135.307,22.889,135.307,19.808 M146.141,24.695h-4.539l1.434-4.25c0.318-0.957,0.638-1.966,0.849-2.709h0.056
		c0.186,0.77,0.504,1.727,0.822,2.709L146.141,24.695z M148.16,30.908h3.956l-6.054-16.544h-4.064l-6.213,16.544h3.744l1.115-3.293
		h6.453L148.16,30.908z M169.432,30.908V14.364h-3.242v9.108c0,0.742,0.026,1.779,0.08,2.521h-0.08
		c-0.344-0.768-0.928-1.857-1.434-2.681l-5.576-8.949h-3.851v16.544h3.239v-9.135c0-0.797-0.053-1.647-0.08-2.363h0.054
		c0.372,0.743,0.903,1.726,1.409,2.549l5.574,8.949H169.432z"/>
	<path fill="#1D1D1B" d="M36.66,8.17c0.103-0.179,0.041-0.408-0.138-0.512c-0.179-0.103-0.409-0.042-0.512,0.139
		c-1.766,3.072-2.948,6.588-3.499,10.35c-0.132-0.449-0.36-0.932-0.755-1.292c-0.673-0.612-1.653-0.712-2.208-0.712
		c-0.151,0-0.271,0.006-0.346,0.011l-0.09,0.009c0,0-0.049,1.66,0.937,2.558c0.713,0.648,1.77,0.721,2.301,0.711
		c-0.092,0.873-0.154,1.756-0.18,2.65c-0.131-0.46-0.36-0.962-0.768-1.332c-0.673-0.613-1.652-0.712-2.207-0.712
		c-0.151-0.002-0.271,0.005-0.346,0.011l-0.091,0.009l0,0c0,0-0.049,1.659,0.937,2.557c0.794,0.722,2.015,0.73,2.461,0.706
		c0.007,0.961,0.053,1.914,0.137,2.852c-0.218-0.491-0.581-1.071-1.159-1.412c-0.785-0.458-1.765-0.351-2.307-0.237
		c-0.148,0.031-0.263,0.062-0.336,0.082l-0.087,0.027l0,0c0,0,0.297,1.633,1.448,2.305c0.915,0.535,2.094,0.304,2.54,0.185
		c0.109,0.933,0.255,1.851,0.44,2.75c-0.298-0.412-0.726-0.849-1.292-1.058c-0.853-0.315-1.798-0.041-2.314,0.166
		c-0.14,0.056-0.248,0.107-0.316,0.142l-0.081,0.041c0,0,0.576,1.558,1.827,2.021c0.917,0.34,1.94-0.002,2.422-0.211
		c0.628,2.582,1.569,5.014,2.809,7.221c0.068,0.121,0.196,0.19,0.327,0.19c0.062,0,0.125-0.018,0.183-0.049
		c0.181-0.103,0.244-0.33,0.144-0.51c-1.212-2.158-2.13-4.537-2.743-7.066c0.515,0.015,1.615-0.043,2.349-0.711
		c0.985-0.897,0.937-2.557,0.937-2.557l0,0l-0.091-0.011c-0.076-0.006-0.195-0.012-0.346-0.012
		c-0.555,0.002-1.535,0.102-2.208,0.713c-0.509,0.465-0.742,1.129-0.848,1.664c-0.191-0.908-0.34-1.834-0.452-2.775
		c0.464,0.023,1.659,0.005,2.439-0.706c0.987-0.896,0.938-2.558,0.938-2.558l-0.091-0.009c-0.075-0.006-0.195-0.013-0.345-0.011
		c-0.555,0.001-1.536,0.1-2.208,0.713c-0.487,0.443-0.721,1.073-0.834,1.598c-0.079-0.881-0.122-1.773-0.131-2.674
		c0.448,0.024,1.667,0.016,2.46-0.706c0.986-0.897,0.937-2.557,0.937-2.557l-0.091-0.009c-0.076-0.006-0.194-0.012-0.345-0.012
		c-0.555,0.001-1.535,0.101-2.208,0.713c-0.379,0.346-0.605,0.805-0.74,1.238c0.027-0.892,0.089-1.773,0.184-2.644
		c0.429,0.085,1.651,0.255,2.546-0.355c1.102-0.751,1.282-2.401,1.282-2.401l-0.088-0.021c-0.074-0.016-0.191-0.04-0.34-0.059
		c-0.55-0.077-1.534-0.115-2.286,0.398c-0.471,0.322-0.773,0.808-0.966,1.26C33.788,14.594,34.938,11.164,36.66,8.17"/>
</g>
</svg>
