<?xml version="1.0" encoding="utf-8"?>
<!-- Generator: Adobe Illustrator 16.0.0, SVG Export Plug-In . SVG Version: 6.00 Build 0)  -->
<!DOCTYPE svg PUBLIC "-//W3C//DTD SVG 1.1//EN" "http://www.w3.org/Graphics/SVG/1.1/DTD/svg11.dtd">
<svg version="1.1" id="Capa_1" xmlns="http://www.w3.org/2000/svg" xmlns:xlink="http://www.w3.org/1999/xlink" x="0px" y="0px"
	 width="209px" height="45.109px" viewBox="0 0.441 209 45.109" enable-background="new 0 0.441 209 45.109" xml:space="preserve">
<g id="Capa_1_1_" display="none">
	<rect y="-0.25" display="inline" fill="#0000FF" width="209" height="46"/>
</g>
<g id="base_bca">
	<polygon fill="#FFFFFF" points="183.59,22.995 196.507,0.441 14.643,0.441 2,22.995 14.643,45.55 196.507,45.55 	"/>
</g>
<g id="tottus" display="none">
	<polygon display="inline" fill="#82BC00" points="71.545,13.288 54.26,13.288 54.26,18.437 59.694,18.437 59.694,34.15 
		66.117,34.15 66.117,18.437 71.545,18.437 	"/>
	<polygon display="inline" fill="#82BC00" points="93.266,18.437 98.698,18.437 98.698,34.15 105.119,34.15 105.117,18.437 
		110.555,18.437 110.555,13.288 93.266,13.288 	"/>
	<polygon display="inline" fill="#82BC00" points="112.109,18.437 117.547,18.437 117.547,34.15 123.971,34.15 123.971,18.437 
		129.4,18.437 129.4,13.288 112.109,13.288 	"/>
	<path display="inline" fill="#82BC00" d="M144.38,26.025c0,1.158-0.315,2.058-0.95,2.688c-0.623,0.63-1.486,0.938-2.595,0.938
		c-1.117,0-1.993-0.315-2.625-0.951c-0.625-0.641-0.933-1.539-0.933-2.674V13.288h-6.412v12.437c0,1.026,0.199,2.203,0.601,3.533
		c0.244,0.826,0.694,1.623,1.354,2.405c0.677,0.776,1.41,1.377,2.218,1.808c0.802,0.415,1.802,0.693,2.985,0.836
		c1.203,0.144,2.312,0.213,3.318,0.213c1.751,0,3.249-0.229,4.496-0.695c0.902-0.329,1.754-0.908,2.568-1.723
		c0.82-0.822,1.42-1.787,1.796-2.873c0.39-1.103,0.587-2.27,0.58-3.504V13.288h-6.403L144.38,26.025L144.38,26.025z"/>
	<path display="inline" fill="#82BC00" d="M170.335,24.273c-0.548-0.92-1.435-1.69-2.647-2.309
		c-1.211-0.624-3.221-1.241-6.029-1.851c-1.137-0.237-1.848-0.487-2.15-0.768c-0.316-0.266-0.469-0.563-0.469-0.899
		c0-0.454,0.186-0.836,0.562-1.149c0.385-0.322,0.944-0.486,1.688-0.486c0.905,0,1.61,0.215,2.123,0.64
		c0.519,0.43,0.862,1.111,1.022,2.051l6.057-0.353c-0.268-2.167-1.1-3.74-2.494-4.73c-1.395-0.992-3.417-1.493-6.072-1.493
		c-2.162,0.003-3.869,0.28-5.117,0.828c-1.234,0.543-2.166,1.291-2.793,2.25c-0.609,0.945-0.918,1.956-0.918,3.034
		c0,1.63,0.601,2.968,1.812,4.025c1.199,1.055,3.207,1.896,6.025,2.536c1.719,0.377,2.815,0.781,3.289,1.209
		c0.469,0.422,0.709,0.906,0.709,1.45c0,0.567-0.254,1.074-0.752,1.507c-0.494,0.422-1.197,0.642-2.113,0.642
		c-1.229,0-2.172-0.423-2.836-1.267c-0.406-0.52-0.674-1.281-0.808-2.279l-6.11,0.386c0.18,2.108,0.951,3.847,2.312,5.21
		c1.363,1.366,3.809,2.048,7.342,2.047c2.014,0,3.682-0.286,5.008-0.867c1.32-0.589,2.352-1.445,3.086-2.572
		c0.742-1.131,1.111-2.365,1.111-3.7C171.174,26.225,170.895,25.193,170.335,24.273"/>
	<path display="inline" fill="#82BC00" d="M82.378,12.987c-6.033,0-10.927,4.912-10.927,10.968c0,6.055,4.894,10.968,10.927,10.968
		c6.031,0,10.924-4.913,10.924-10.968C93.302,17.898,88.41,12.987,82.378,12.987 M82.378,29.438c-3.018,0-5.461-2.453-5.461-5.482
		c0-3.028,2.444-5.486,5.461-5.486c3.013,0,5.461,2.458,5.461,5.486C87.839,26.982,85.391,29.438,82.378,29.438"/>
	<path display="inline" fill="#82BC00" d="M31.737,13.765c0-1.966,1.592-3.554,3.554-3.554c1.96,0,3.55,1.588,3.55,3.554
		c0,1.958-1.59,3.549-3.55,3.547C33.329,17.312,31.737,15.723,31.737,13.765"/>
	<path display="inline" fill="#E2E040" d="M23.923,14.788c0-1.743,1.411-3.154,3.153-3.154c1.747,0,3.161,1.411,3.161,3.154
		c0,1.742-1.415,3.155-3.161,3.155C25.334,17.943,23.923,16.53,23.923,14.788"/>
	<path display="inline" fill="#E2E040" d="M40.338,14.788c0-1.743,1.415-3.158,3.156-3.158c1.745,0,3.16,1.415,3.16,3.158
		c0,1.742-1.415,3.155-3.16,3.158C41.753,17.946,40.338,16.53,40.338,14.788"/>
	<path display="inline" fill="#E2E040" d="M40.338,31.203c0-1.743,1.415-3.154,3.156-3.154c1.749,0,3.16,1.411,3.16,3.154
		c0,1.74-1.411,3.156-3.16,3.156C41.753,34.359,40.338,32.943,40.338,31.203"/>
	<path display="inline" fill="#E2E040" d="M23.923,31.203c0-1.743,1.411-3.154,3.154-3.154c1.746,0,3.158,1.411,3.158,3.154
		c0,1.74-1.412,3.156-3.158,3.156C25.334,34.359,23.923,32.943,23.923,31.203"/>
	<path display="inline" fill="#4A7628" d="M31.345,22.995c0-2.181,1.767-3.947,3.946-3.947c2.178,0,3.943,1.767,3.943,3.947
		c0,2.178-1.765,3.944-3.943,3.944C33.111,26.939,31.345,25.173,31.345,22.995"/>
	<path display="inline" fill="#82BC00" d="M31.737,32.229c0-1.959,1.591-3.554,3.554-3.554c1.96,0,3.55,1.595,3.55,3.554
		c0,1.963-1.59,3.553-3.55,3.553C33.328,35.779,31.737,34.189,31.737,32.229"/>
	<path display="inline" fill="#82BC00" d="M40.97,22.995c0-1.962,1.591-3.554,3.554-3.554c1.959,0,3.551,1.59,3.551,3.554
		c0,1.962-1.592,3.551-3.551,3.551C42.562,26.546,40.97,24.957,40.97,22.995"/>
	<path display="inline" fill="#82BC00" d="M22.504,22.995c0-1.962,1.589-3.554,3.552-3.554c1.961,0,3.553,1.592,3.553,3.554
		s-1.592,3.551-3.553,3.551C24.093,26.546,22.504,24.957,22.504,22.995"/>
</g>
<g id="walmart">
	<g>
		<path fill="#FFB819" d="M153.553,18.102c0.826,0,1.508-0.43,1.6-0.986l0.818-9.243c0-0.914-1.07-1.664-2.416-1.664
			c-1.344,0-2.412,0.75-2.412,1.664l0.816,9.243c0.09,0.556,0.771,0.986,1.596,0.986H153.553z"/>
		<path fill="#FFB819" d="M148.557,20.989c0.414-0.717,0.383-1.522-0.055-1.879l-7.596-5.327c-0.789-0.457-1.975,0.092-2.646,1.258
			c-0.676,1.163-0.555,2.464,0.234,2.921l8.41,3.917c0.525,0.195,1.242-0.179,1.656-0.896L148.557,20.989z"/>
		<path fill="#FFB819" d="M158.551,20.983c0.414,0.717,1.127,1.091,1.654,0.896l8.412-3.917c0.791-0.456,0.906-1.757,0.236-2.92
			c-0.677-1.166-1.861-1.715-2.65-1.258l-7.596,5.327c-0.437,0.357-0.467,1.163-0.053,1.879L158.551,20.983z"/>
		<path fill="#FFB819" d="M153.553,29.646c0.826,0,1.508,0.426,1.6,0.983l0.818,9.24c0,0.914-1.07,1.664-2.416,1.664
			c-1.344,0-2.412-0.75-2.412-1.664l0.816-9.24c0.09-0.56,0.771-0.983,1.596-0.983H153.553z"/>
		<path fill="#FFB819" d="M158.551,26.76c0.414-0.719,1.127-1.09,1.654-0.891l8.412,3.91c0.791,0.459,0.906,1.762,0.236,2.926
			c-0.677,1.162-1.861,1.713-2.65,1.258l-7.596-5.324c-0.437-0.361-0.467-1.166-0.053-1.881L158.551,26.76z"/>
		<path fill="#FFB819" d="M148.557,26.758c0.414,0.717,0.383,1.521-0.055,1.881l-7.596,5.324c-0.789,0.455-1.975-0.098-2.646-1.258
			c-0.676-1.164-0.555-2.467,0.234-2.926l8.41-3.91c0.525-0.199,1.242,0.172,1.656,0.891L148.557,26.758z"/>
		<path fill="#0071CE" d="M105.635,28.621c0,0.283-0.025,0.578-0.104,0.834c-0.322,1.066-1.428,1.969-2.809,1.969
			c-1.152,0-2.068-0.654-2.068-2.037c0-2.115,2.329-2.701,4.98-2.686L105.635,28.621L105.635,28.621z M109.793,24.936
			c0-3.491-1.49-6.56-6.527-6.56c-2.587,0-4.64,0.727-5.76,1.374l0.82,2.805c1.024-0.646,2.655-1.18,4.2-1.18
			c2.557-0.007,2.975,1.445,2.975,2.376v0.222c-5.571-0.009-9.092,1.92-9.092,5.85c0,2.4,1.793,4.648,4.91,4.648
			c1.917,0,3.522-0.765,4.481-1.99h0.095c0,0,0.637,2.662,4.145,1.645c-0.184-1.109-0.244-2.289-0.244-3.713v-5.477H109.793z"/>
		<path fill="#0071CE" d="M23.004,13.623c0,0,3.64,14.915,4.221,17.336c0.678,2.826,1.899,3.865,5.422,3.164l2.273-9.248
			c0.576-2.296,0.962-3.935,1.333-6.271h0.065c0.261,2.361,0.632,3.982,1.106,6.28c0,0,0.925,4.198,1.398,6.401
			c0.475,2.205,1.796,3.594,5.247,2.838l5.416-20.5h-4.372l-1.849,8.863c-0.498,2.581-0.948,4.594-1.296,6.956h-0.062
			c-0.316-2.338-0.718-4.272-1.224-6.785l-1.925-9.033H34.2l-2.059,8.805c-0.584,2.675-1.129,4.835-1.477,7.116h-0.063
			c-0.355-2.146-0.829-4.86-1.341-7.452c0,0-1.224-6.298-1.653-8.469H23.004L23.004,13.623z"/>
		<path fill="#0071CE" d="M57.751,28.621c0,0.283-0.025,0.578-0.104,0.834c-0.321,1.066-1.427,1.969-2.808,1.969
			c-1.153,0-2.069-0.654-2.069-2.037c0-2.115,2.329-2.701,4.981-2.686V28.621z M61.91,24.936c0-3.491-1.491-6.56-6.528-6.56
			c-2.586,0-4.64,0.727-5.759,1.374l0.818,2.805c1.024-0.646,2.656-1.18,4.201-1.18c2.556-0.007,2.975,1.445,2.975,2.376v0.222
			c-5.573-0.009-9.092,1.92-9.092,5.85c0,2.4,1.792,4.648,4.908,4.648c1.917,0,3.521-0.765,4.482-1.99h0.094
			c0,0,0.638,2.662,4.145,1.645c-0.186-1.109-0.244-2.289-0.244-3.713V24.936z"/>
		<polygon fill="#0071CE" points="68.849,29.77 68.849,13.623 64.687,13.623 64.687,34.123 68.849,34.123 		"/>
		<path fill="#0071CE" d="M123.316,13.623v15.124c0,2.084,0.393,3.547,1.231,4.438c0.731,0.78,1.941,1.285,3.39,1.285
			c1.229,0,2.44-0.232,3.012-0.445l-0.053-3.252c-0.426,0.104-0.914,0.188-1.582,0.188c-1.418,0-1.894-0.908-1.894-2.781v-5.785
			h3.625V18.47h-3.625v-4.848L123.316,13.623L123.316,13.623z"/>
		<path fill="#0071CE" d="M112.57,18.722v15.401h4.293v-7.887c0-0.424,0.027-0.797,0.094-1.135c0.318-1.654,1.582-2.708,3.395-2.708
			c0.498,0,0.855,0.053,1.24,0.109V18.47c-0.322-0.065-0.545-0.095-0.945-0.095c-1.604,0-3.428,1.034-4.192,3.252h-0.115v-2.906
			L112.57,18.722L112.57,18.722z"/>
		<path fill="#0071CE" d="M71.765,18.722v15.401h4.185v-9.032c0-0.423,0.049-0.87,0.197-1.26c0.347-0.91,1.193-1.974,2.542-1.974
			c1.689,0,2.479,1.428,2.479,3.489v8.776h4.181V24.98c0-0.404,0.055-0.891,0.173-1.248c0.345-1.034,1.257-1.876,2.512-1.876
			c1.711,0,2.535,1.403,2.535,3.826v8.439h4.183v-9.07c0-4.784-2.43-6.677-5.171-6.677c-1.214,0-2.173,0.304-3.039,0.835
			c-0.728,0.447-1.382,1.083-1.952,1.918h-0.061c-0.662-1.66-2.218-2.754-4.244-2.754c-2.605,0-3.776,1.319-4.486,2.439h-0.061
			v-2.093h-3.973V18.722z"/>
		<path fill="#FFB819" d="M170.285,33.873h0.078c0.092,0,0.166-0.031,0.166-0.105c0-0.065-0.049-0.108-0.154-0.108
			c-0.043,0-0.072,0.004-0.09,0.008V33.873z M170.279,34.273h-0.164v-0.711c0.064-0.015,0.156-0.027,0.273-0.027
			c0.137,0,0.196,0.023,0.25,0.057c0.038,0.031,0.067,0.088,0.067,0.154c0,0.082-0.062,0.145-0.146,0.17v0.008
			c0.067,0.021,0.106,0.078,0.129,0.176c0.022,0.107,0.035,0.152,0.055,0.174h-0.182c-0.021-0.026-0.033-0.086-0.056-0.17
			c-0.014-0.08-0.057-0.112-0.147-0.112h-0.08V34.273L170.279,34.273z M170.389,33.33c-0.313,0-0.551,0.258-0.551,0.572
			c0,0.318,0.236,0.572,0.561,0.572c0.314,0.004,0.545-0.254,0.545-0.572c0-0.314-0.229-0.572-0.549-0.572H170.389z M170.398,33.186
			c0.41,0,0.729,0.32,0.729,0.717c0,0.406-0.318,0.722-0.732,0.722c-0.41,0-0.737-0.313-0.737-0.722
			c0-0.396,0.327-0.717,0.737-0.717H170.398z"/>
	</g>
</g>
</svg>
